<svg width="80" height="78" viewBox="0 0 80 78" fill="none" xmlns="http://www.w3.org/2000/svg">
<g clip-path="url(#clip0_131_65)">
<path d="M17.47 5.37998C17.7323 5.37978 17.9888 5.45741 18.2071 5.60304C18.4253 5.74866 18.5954 5.95575 18.6959 6.19808C18.7963 6.44042 18.8227 6.70711 18.7716 6.96443C18.7204 7.22174 18.5941 7.4581 18.4086 7.6436C18.2231 7.82911 17.9867 7.95542 17.7294 8.00655C17.4721 8.05768 17.2054 8.03134 16.9631 7.93085C16.7208 7.83037 16.5137 7.66026 16.368 7.44204C16.2224 7.22383 16.1448 6.96732 16.145 6.70498C16.1433 6.5305 16.1763 6.35742 16.2423 6.19588C16.3083 6.03434 16.4058 5.88758 16.5292 5.76419C16.6526 5.64081 16.7993 5.54327 16.9609 5.4773C17.1224 5.41133 17.2955 5.37824 17.47 5.37998ZM12.197 5.37998C12.4593 5.37998 12.7157 5.45778 12.9338 5.60352C13.1519 5.74927 13.3218 5.95642 13.4221 6.19877C13.5225 6.44113 13.5487 6.70779 13.4974 6.96504C13.4462 7.22229 13.3198 7.45855 13.1343 7.64396C12.9487 7.82936 12.7123 7.95557 12.4551 8.00662C12.1978 8.05768 11.9311 8.03127 11.6889 7.93076C11.4466 7.83024 11.2396 7.66013 11.094 7.44194C10.9484 7.22375 10.8708 6.96728 10.871 6.70498C10.8691 6.53033 10.9021 6.35706 10.9681 6.19533C11.0341 6.03361 11.1317 5.88669 11.2552 5.76318C11.3787 5.63968 11.5256 5.54207 11.6873 5.4761C11.8491 5.41013 12.0223 5.37811 12.197 5.37998ZM6.83199 5.37998C7.09429 5.37998 7.3507 5.45778 7.56878 5.60352C7.78686 5.74927 7.95682 5.95642 8.05715 6.19877C8.15748 6.44113 8.18368 6.70779 8.13244 6.96504C8.08119 7.22229 7.9548 7.45855 7.76926 7.64396C7.58371 7.82936 7.34735 7.95557 7.09006 8.00662C6.83278 8.05768 6.56613 8.03127 6.32386 7.93076C6.08158 7.83024 5.87456 7.66013 5.72897 7.44194C5.58339 7.22375 5.50579 6.96728 5.50599 6.70498C5.50397 6.53034 5.53691 6.35705 5.60284 6.19532C5.66878 6.03359 5.76639 5.88668 5.88994 5.76322C6.01349 5.63977 6.16047 5.54227 6.32226 5.47645C6.48404 5.41064 6.65734 5.37784 6.83199 5.37998ZM78.644 13.29H1.51399C1.16231 13.29 0.825038 13.1503 0.576365 12.9016C0.327691 12.6529 0.187988 12.3157 0.187988 11.964C0.187988 11.6123 0.327691 11.275 0.576365 11.0264C0.825038 10.7777 1.16231 10.638 1.51399 10.638H78.644C78.8181 10.638 78.9905 10.6723 79.1514 10.7389C79.3123 10.8056 79.4585 10.9032 79.5816 11.0264C79.7047 11.1495 79.8024 11.2957 79.869 11.4565C79.9357 11.6174 79.97 11.7898 79.97 11.964C79.97 12.1381 79.9357 12.3105 79.869 12.4714C79.8024 12.6323 79.7047 12.7785 79.5816 12.9016C79.4585 13.0247 79.3123 13.1224 79.1514 13.189C78.9905 13.2557 78.8181 13.29 78.644 13.29Z" fill="black"/>
<path d="M1.51504 53.1881C1.33972 53.1881 1.16614 53.1534 1.00435 53.0859C0.842549 53.0183 0.695746 52.9194 0.572431 52.7948C0.449115 52.6702 0.351736 52.5224 0.285928 52.3599C0.220119 52.1974 0.187188 52.0234 0.189039 51.8481V3.97711C0.189304 2.92243 0.608393 1.91102 1.35417 1.16524C2.09994 0.419467 3.11135 0.000378013 4.16604 0.000112917H75.978C76.5037 -0.00383996 77.0249 0.0960275 77.5118 0.293986C77.9988 0.491945 78.4418 0.784099 78.8156 1.15369C79.1894 1.52328 79.4865 1.96303 79.6899 2.44771C79.8934 2.9324 79.9991 3.45247 80.001 3.97811V27.9801C79.964 28.3078 79.8075 28.6104 79.5616 28.8301C79.3156 29.0499 78.9974 29.1713 78.6675 29.1713C78.3377 29.1713 78.0195 29.0499 77.7735 28.8301C77.5275 28.6104 77.3711 28.3078 77.334 27.9801V3.97811C77.334 3.62644 77.1943 3.28916 76.9457 3.04049C76.697 2.79182 76.3597 2.65211 76.008 2.65211H4.16604C3.81557 2.65601 3.48056 2.79697 3.23273 3.0448C2.98489 3.29263 2.84394 3.62765 2.84004 3.97811V51.8481C2.84189 52.0233 2.80899 52.1972 2.74324 52.3596C2.6775 52.5221 2.58021 52.6698 2.457 52.7944C2.33379 52.919 2.1871 53.018 2.02542 53.0856C1.86374 53.1531 1.69027 53.188 1.51504 53.1881Z" fill="black"/>
<path d="M56.028 77.115H25.441C25.2639 77.1198 25.0876 77.0891 24.9225 77.0247C24.7574 76.9603 24.607 76.8634 24.48 76.7399C24.3529 76.6163 24.252 76.4685 24.1831 76.3053C24.1141 76.1421 24.0786 75.9667 24.0786 75.7895C24.0786 75.6123 24.1141 75.4369 24.1831 75.2736C24.252 75.1104 24.3529 74.9626 24.48 74.8391C24.607 74.7155 24.7574 74.6186 24.9225 74.5542C25.0876 74.4898 25.2639 74.4591 25.441 74.464H28.108C28.6324 74.4641 29.1517 74.3609 29.6362 74.1603C30.1207 73.9597 30.561 73.6655 30.9318 73.2947C31.3026 72.9239 31.5967 72.4837 31.7973 71.9992C31.998 71.5147 32.1012 70.9954 32.101 70.471V67.819C32.101 67.4673 32.2407 67.13 32.4894 66.8813C32.7381 66.6327 33.0753 66.493 33.427 66.493C33.7787 66.493 34.116 66.6327 34.3646 66.8813C34.6133 67.13 34.753 67.4673 34.753 67.819V70.471C34.752 71.9099 34.287 73.3102 33.427 74.464H46.73C45.8428 73.3209 45.3558 71.9179 45.344 70.471V62.5C45.3242 62.313 45.3439 62.1239 45.4018 61.945C45.4598 61.7661 45.5547 61.6014 45.6805 61.4616C45.8062 61.3218 45.96 61.21 46.1318 61.1334C46.3035 61.0569 46.4895 61.0173 46.6775 61.0173C46.8656 61.0173 47.0515 61.0569 47.2233 61.1334C47.3951 61.21 47.5488 61.3218 47.6746 61.4616C47.8003 61.6014 47.8953 61.7661 47.9532 61.945C48.0112 62.1239 48.0309 62.313 48.011 62.5V70.47C48.0109 70.9944 48.1141 71.5138 48.3147 71.9983C48.5153 72.4829 48.8094 72.9232 49.1802 73.2941C49.551 73.665 49.9912 73.9592 50.4757 74.1599C50.9603 74.3606 51.4796 74.464 52.004 74.464H55.982C56.3273 74.4734 56.6552 74.6173 56.896 74.8648C57.1369 75.1123 57.2716 75.4441 57.2716 75.7895C57.2716 76.1348 57.1369 76.4666 56.896 76.7141C56.6552 76.9617 56.3273 77.1055 55.982 77.115" fill="black"/>
<path d="M46.7161 63.826H4.16607C3.63914 63.8301 3.11662 63.7298 2.62864 63.531C2.14066 63.3321 1.69687 63.0386 1.32288 62.6674C0.948886 62.2962 0.652083 61.8547 0.449589 61.3682C0.247096 60.8817 0.142919 60.3599 0.143067 59.833V51.863C0.142935 51.6869 0.177491 51.5125 0.244762 51.3497C0.312032 51.187 0.410699 51.0391 0.535129 50.9145C0.65956 50.7899 0.807317 50.691 0.969964 50.6235C1.13261 50.5559 1.30696 50.5211 1.48307 50.521H38.7151C39.0443 50.556 39.3491 50.7115 39.5705 50.9577C39.7919 51.2039 39.9144 51.5234 39.9144 51.8545C39.9144 52.1856 39.7919 52.5051 39.5705 52.7513C39.3491 52.9975 39.0443 53.153 38.7151 53.188H2.84007V59.833C2.84007 60.1847 2.97977 60.5219 3.22844 60.7706C3.47712 61.0193 3.81439 61.159 4.16607 61.159H46.7161C46.9022 61.1406 47.0902 61.1614 47.2679 61.22C47.4455 61.2787 47.609 61.3738 47.7476 61.4995C47.8862 61.6251 47.9971 61.7783 48.0729 61.9494C48.1487 62.1204 48.1879 62.3054 48.1879 62.4925C48.1879 62.6796 48.1487 62.8646 48.0729 63.0356C47.9971 63.2067 47.8862 63.3599 47.7476 63.4855C47.609 63.6112 47.4455 63.7063 47.2679 63.765C47.0902 63.8236 46.9022 63.8444 46.7161 63.826Z" fill="black"/>
<path d="M46.7169 31.9129H44.0649C43.7339 31.8802 43.427 31.7256 43.2037 31.4791C42.9804 31.2327 42.8567 30.912 42.8567 30.5794C42.8567 30.2468 42.9804 29.9262 43.2037 29.6797C43.427 29.4332 43.7339 29.2786 44.0649 29.2459H46.7169C46.9039 29.226 47.093 29.2457 47.2719 29.3037C47.4508 29.3617 47.6155 29.4566 47.7553 29.5824C47.8951 29.7081 48.0069 29.8619 48.0834 30.0336C48.16 30.2054 48.1995 30.3914 48.1995 30.5794C48.1995 30.7675 48.16 30.9534 48.0834 31.1252C48.0069 31.297 47.8951 31.4507 47.7553 31.5765C47.6155 31.7022 47.4508 31.7972 47.2719 31.8551C47.093 31.9131 46.9039 31.9328 46.7169 31.9129ZM70.6599 21.2749H44.0639C43.7329 21.2422 43.426 21.0876 43.2027 20.8411C42.9794 20.5947 42.8557 20.274 42.8557 19.9414C42.8557 19.6088 42.9794 19.2882 43.2027 19.0417C43.426 18.7952 43.7329 18.6406 44.0639 18.6079H70.6599C70.9908 18.6406 71.2978 18.7952 71.5211 19.0417C71.7444 19.2882 71.8681 19.6088 71.8681 19.9414C71.8681 20.274 71.7444 20.5947 71.5211 20.8411C71.2978 21.0876 70.9908 21.2422 70.6599 21.2749ZM70.6599 26.5939H44.0639C43.7329 26.5612 43.426 26.4066 43.2027 26.1601C42.9794 25.9137 42.8557 25.593 42.8557 25.2604C42.8557 24.9278 42.9794 24.6072 43.2027 24.3607C43.426 24.1142 43.7329 23.9596 44.0639 23.9269H70.6599C70.9908 23.9596 71.2978 24.1142 71.5211 24.3607C71.7444 24.6072 71.8681 24.9278 71.8681 25.2604C71.8681 25.593 71.7444 25.9137 71.5211 26.1601C71.2978 26.4066 70.9908 26.5612 70.6599 26.5939Z" fill="black" fill-opacity="0.5"/>
<path d="M61.3469 66.4779C58.4503 66.4802 55.593 65.8068 53.0023 64.5111C50.4115 63.2154 48.1587 61.3333 46.423 59.0143C44.6872 56.6952 43.5164 54.0033 43.0035 51.1524C42.4906 48.3015 42.6498 45.3703 43.4685 42.5917C44.2871 39.8131 45.7427 37.2638 47.7194 35.1464C49.6961 33.0291 52.1395 31.402 54.8553 30.3945C57.5711 29.3871 60.4845 29.0271 63.3639 29.3431C66.2433 29.6591 69.0093 30.6424 71.4419 32.2149C71.5884 32.3139 71.7139 32.4407 71.8113 32.5882C71.9087 32.7356 71.9761 32.9008 72.0097 33.0743C72.0432 33.2478 72.0423 33.4262 72.0069 33.5994C71.9715 33.7725 71.9024 33.937 71.8034 34.0834C71.7045 34.2299 71.5777 34.3554 71.4302 34.4528C71.2828 34.5502 71.1176 34.6176 70.9441 34.6512C70.7706 34.6847 70.5921 34.6838 70.419 34.6484C70.2459 34.613 70.0814 34.5439 69.9349 34.4449C66.7909 32.4356 63.0383 31.601 59.339 32.0883C55.6397 32.5757 52.2313 34.3536 49.7148 37.1085C47.1983 39.8635 45.7355 43.4185 45.5842 47.1467C45.433 50.8749 46.603 54.5368 48.888 57.4866C51.173 60.4363 54.4262 62.4845 58.0739 63.2699C61.7215 64.0553 65.5294 63.5275 68.8259 61.7795C72.1224 60.0315 74.6958 57.1757 76.0923 53.7156C77.4888 50.2555 77.6186 46.4134 76.4589 42.8669C76.3657 42.5378 76.4032 42.1853 76.5638 41.8832C76.7243 41.5811 76.9954 41.3528 77.3204 41.2459C77.6453 41.139 77.999 41.1618 78.3076 41.3096C78.6161 41.4574 78.8556 41.7187 78.9759 42.0389C79.8956 44.8359 80.139 47.8112 79.6861 50.7204C79.2332 53.6297 78.097 56.3902 76.3706 58.7753C74.6443 61.1604 72.377 63.1022 69.7548 64.4413C67.1326 65.7804 64.2303 66.4787 61.2859 66.4789" fill="black"/>
<path d="M60.02 55.102C59.8294 55.0977 59.642 55.0524 59.4705 54.9692C59.299 54.8861 59.1474 54.7669 59.026 54.62L52.381 46.65C52.2625 46.5188 52.1712 46.3654 52.1125 46.1987C52.0538 46.032 52.0287 45.8553 52.0388 45.6788C52.0489 45.5023 52.0939 45.3296 52.1713 45.1707C52.2487 45.0117 52.3569 44.8697 52.4895 44.7529C52.6222 44.6362 52.7768 44.5469 52.9443 44.4903C53.1117 44.4337 53.2888 44.4109 53.4651 44.4233C53.6414 44.4357 53.8135 44.483 53.9714 44.5624C54.1294 44.6418 54.2699 44.7518 54.385 44.886L60.051 51.696L76.625 33.435C76.7419 33.3031 76.8838 33.1958 77.0425 33.1194C77.2012 33.0429 77.3736 32.9988 77.5495 32.9896C77.7255 32.9804 77.9015 33.0063 78.0673 33.0658C78.2332 33.1253 78.3855 33.2172 78.5155 33.3362C78.6454 33.4551 78.7504 33.5987 78.8243 33.7587C78.8983 33.9186 78.9396 34.0916 78.946 34.2677C78.9524 34.4438 78.9236 34.6194 78.8615 34.7842C78.7994 34.9491 78.705 35.0999 78.584 35.228L61 54.62C60.8748 54.7543 60.723 54.8612 60.5543 54.9338C60.3856 55.0064 60.2037 55.0433 60.02 55.042" fill="black"/>
<path d="M23.0761 33.8121C23.0392 33.0792 23.0392 32.345 23.0761 31.6121C23.7497 30.9304 24.1651 30.0356 24.2511 29.0811C24.5521 29.0811 25.0191 28.7641 25.1551 27.5741C25.1965 27.3747 25.1818 27.1677 25.1126 26.9761C25.0434 26.7846 24.9224 26.616 24.7631 26.4891C25.2451 24.9821 26.2701 20.4621 22.8951 20.0551C22.6069 19.715 22.2381 19.4526 21.8223 19.2919C21.4065 19.1311 20.9571 19.0772 20.5151 19.1351C15.9191 19.2261 15.3611 22.6161 16.3711 26.4891C16.2089 26.6141 16.0849 26.7819 16.013 26.9736C15.9411 27.1653 15.9241 27.3733 15.9641 27.5741C16.0991 28.7191 16.5821 29.0801 16.8681 29.0801C16.9751 30.0352 17.3994 30.9267 18.0731 31.6121C18.1101 32.3451 18.1101 33.0791 18.0731 33.8121C17.1691 36.2521 11.0221 35.5601 10.7351 40.2911H30.4901C30.2041 35.5601 24.0861 36.2531 23.1671 33.8111" fill="black" fill-opacity="0.5"/>
</g>
<defs>
<clipPath id="clip0_131_65">
<rect width="80" height="78" fill="white"/>
</clipPath>
</defs>
</svg>
