<svg width="74" height="74" viewBox="0 0 74 74" fill="none" xmlns="http://www.w3.org/2000/svg">
<g clip-path="url(#clip0_131_74)">
<path d="M73.6437 57.827C73.5947 57.7644 68.7642 51.5518 67.1943 46.5847C66.8209 45.403 66.3564 43.7374 65.8224 41.8305C63.2689 32.6989 60.9464 24.9312 58.3712 22.356C55.5808 19.5667 44.7962 17.7042 40.3642 17.0416V6.72717C40.3642 3.01692 37.3472 0 33.6358 0H6.72831C3.01692 0 0 3.01692 0 6.72831V53.8185C0.0018088 55.6023 0.711299 57.3125 1.97274 58.5737C3.23419 59.835 4.94451 60.5442 6.72831 60.5457H33.637C34.3633 60.5457 35.0646 60.384 35.7511 60.1472C37.2152 61.5065 38.8739 62.5402 40.6123 63.5933C44.0414 65.6733 47.5866 67.8227 50.6809 73.1621C50.9814 73.6812 51.537 74 52.1358 74C68.1403 74 73.8326 59.611 73.8884 59.4653C73.9925 59.1943 74.0247 58.901 73.9818 58.6139C73.9389 58.3268 73.8224 58.0557 73.6437 57.827ZM6.72717 57.1815C5.83561 57.1803 4.98092 56.8256 4.35049 56.1952C3.72006 55.5648 3.36536 54.7101 3.36415 53.8185V6.72717C3.36536 5.83561 3.72006 4.98092 4.35049 4.35049C4.98092 3.72006 5.83561 3.36536 6.72717 3.36415V57.1815ZM40.3642 31.0754L45.6922 33.2078C45.954 34.1208 46.3957 35.5986 46.8397 36.7518C46.6348 37.1138 46.4606 37.5146 46.2728 37.9415C45.9677 38.6371 45.6341 39.3987 45.1685 39.9896C43.4835 38.7897 41.7758 36.2463 40.3642 33.5436V31.0754ZM13.4543 57.1815H10.0913V3.36415H13.4543V57.1815ZM16.8185 57.1815V3.36415H33.637C34.5285 3.36536 35.3832 3.72006 36.0137 4.35049C36.6441 4.98092 36.9988 5.83561 37 6.72717V26.8927C34.9007 23.8132 31.3623 20.1713 28.1542 19.5189C26.5444 19.1831 25.1224 19.5884 24.0386 20.6745C19.988 24.7251 22.3082 31.6082 25.5243 36.2714C28.0995 40.0055 30.0098 44.4171 30.2808 47.2507C30.3263 47.722 30.3446 48.1683 30.3662 48.6089C30.4709 50.8539 30.6132 53.1923 33.2852 57.1815H16.8185ZM53.0751 70.6165C49.6529 65.1428 45.625 62.7008 42.3565 60.7176C40.0636 59.3286 38.0838 58.1276 36.6767 56.1933C33.9079 52.384 33.8271 50.649 33.7258 48.4518C33.703 47.9577 33.678 47.4568 33.6267 46.9319C33.3034 43.5257 31.2098 38.5916 28.2919 34.3633C25.6996 30.6041 24.0079 25.4617 26.4157 23.0527C26.6104 22.8558 26.8711 22.6941 27.4813 22.8136C30.1169 23.3498 34.369 28.2509 35.4392 30.9013C36.7256 34.089 40.2116 41.7087 44.7632 43.5985C45.28 43.8091 45.8732 43.7556 46.3411 43.4448C48.0226 42.3246 48.7888 40.5725 49.3512 39.2929C49.514 38.9251 49.7337 38.4185 49.7291 38.3821C50.4168 37.9062 50.6513 36.9966 50.2756 36.2475C49.7633 35.224 48.9755 32.4871 48.7136 31.5172C48.6456 31.265 48.5199 31.0322 48.3464 30.837C48.1729 30.6418 47.9564 30.4896 47.7141 30.3924L40.363 27.4517V20.4502C46.4743 21.3951 54.4071 23.1506 55.9918 24.7342C58.1526 26.8962 60.9259 36.811 62.5835 42.7356C63.1277 44.6869 63.6036 46.39 63.9872 47.5968C65.3955 52.0641 68.9338 57.1291 70.374 59.0805C69.0488 61.7672 64.0407 70.16 53.0751 70.6165Z" fill="black"/>
</g>
<defs>
<clipPath id="clip0_131_74">
<rect width="74" height="74" fill="white"/>
</clipPath>
</defs>
</svg>
