<svg width="101" height="84" viewBox="0 0 101 84" fill="none" xmlns="http://www.w3.org/2000/svg">
<path d="M10.5969 51.4081C8.09291 51.4081 6.05591 53.4621 6.05591 55.9871V59.8861C6.05591 60.7221 6.73291 61.4001 7.56991 61.4001H13.6249C14.4609 61.4001 15.1389 60.7221 15.1389 59.8861V55.9871C15.1389 53.4621 13.1019 51.4081 10.5969 51.4081ZM12.1109 58.3721H9.08291V55.9871C9.08291 55.1321 9.76291 54.4351 10.5969 54.4351C11.4319 54.4351 12.1109 55.1321 12.1109 55.9871V58.3721ZM45.7199 40.9621C44.9599 40.9621 44.2409 41.1171 43.5959 41.3951C43.0439 39.4071 41.0829 37.9341 38.7559 37.9341C36.4279 37.9341 34.4679 39.4071 33.9159 41.3941C33.2446 41.1073 32.5219 40.9603 31.7919 40.9621C29.0369 40.9621 26.7959 43.0041 26.7959 45.5151V60.0371C26.7959 60.8731 27.4739 61.5511 28.3099 61.5511H49.2019C50.0379 61.5511 50.7159 60.8731 50.7159 60.0371V45.5151C50.7159 43.0051 48.4739 40.9621 45.7199 40.9621ZM33.7599 58.5231H29.8239V45.5151C29.8239 44.6881 30.7239 43.9891 31.7919 43.9891C32.8589 43.9891 33.7599 44.6881 33.7599 45.5151V58.5231ZM40.7239 58.5231H36.7879V42.5361C36.7879 41.6681 37.6709 40.9621 38.7559 40.9621C39.8409 40.9621 40.7239 41.6681 40.7239 42.5361V58.5231ZM47.6879 58.5231H43.7519V45.5151C43.7519 44.6881 44.6519 43.9891 45.7199 43.9891C46.7869 43.9891 47.6879 44.6881 47.6879 45.5151V58.5231ZM66.9149 51.4081C64.4099 51.4081 62.3729 53.4621 62.3729 55.9871V59.8861C62.3729 60.7221 63.0509 61.4001 63.8869 61.4001H69.9429C70.7789 61.4001 71.4569 60.7221 71.4569 59.8861V55.9871C71.4569 53.4621 69.4189 51.4081 66.9149 51.4081ZM68.4289 58.3721H65.3999V55.9871C65.3999 55.1321 66.0789 54.4351 66.9139 54.4351C67.7479 54.4351 68.4279 55.1321 68.4279 55.9871L68.4289 58.3721Z" fill="black" fill-opacity="0.5"/>
<path d="M68.429 36.2271V33.2411H69.942C70.3435 33.2411 70.7286 33.0816 71.0126 32.7976C71.2965 32.5137 71.456 32.1286 71.456 31.7271C71.456 31.3256 71.2965 30.9405 71.0126 30.6565C70.7286 30.3726 70.3435 30.2131 69.942 30.2131H68.43V28.5481C68.43 28.1466 68.2705 27.7615 67.9866 27.4775C67.7026 27.1936 67.3175 27.0341 66.916 27.0341C66.5145 27.0341 66.1294 27.1936 65.8454 27.4775C65.5615 27.7615 65.402 28.1466 65.402 28.5481V30.2131H63.888C63.4865 30.2131 63.1014 30.3726 62.8174 30.6565C62.5335 30.9405 62.374 31.3256 62.374 31.7271C62.374 32.1286 62.5335 32.5137 62.8174 32.7976C63.1014 33.0816 63.4865 33.2411 63.888 33.2411H65.4V36.2271C63.0974 36.5601 60.9689 37.643 59.344 39.3081V33.3921C59.344 28.6401 57.174 24.1501 53.233 20.7471C49.697 17.6961 45.141 15.8871 40.269 15.5771V12.6521H41.783C42.1845 12.6521 42.5696 12.4926 42.8536 12.2087C43.1375 11.9247 43.297 11.5396 43.297 11.1381C43.297 10.7366 43.1375 10.3515 42.8536 10.0675C42.5696 9.7836 42.1845 9.62409 41.783 9.62409H40.27V7.95809C40.27 7.55655 40.1105 7.17146 39.8266 6.88753C39.5426 6.6036 39.1575 6.44409 38.756 6.44409C38.3545 6.44409 37.9694 6.6036 37.6854 6.88753C37.4015 7.17146 37.242 7.55655 37.242 7.95809V9.62409H35.728C35.3265 9.62409 34.9414 9.7836 34.6574 10.0675C34.3735 10.3515 34.214 10.7366 34.214 11.1381C34.214 11.5396 34.3735 11.9247 34.6574 12.2087C34.9414 12.4926 35.3265 12.6521 35.728 12.6521H37.242V15.5761C32.37 15.8871 27.814 17.6961 24.279 20.7471C20.337 24.1501 18.167 28.6401 18.167 33.3921V39.3081C16.5421 37.6432 14.4135 36.5607 12.111 36.2281V33.2401H13.625C14.0265 33.2401 14.4116 33.0806 14.6956 32.7966C14.9795 32.5127 15.139 32.1276 15.139 31.7261C15.139 31.3246 14.9795 30.9395 14.6956 30.6555C14.4116 30.3716 14.0265 30.2121 13.625 30.2121H12.111V28.5471C12.111 28.1456 11.9515 27.7605 11.6676 27.4765C11.3836 27.1926 10.9985 27.0331 10.597 27.0331C10.1955 27.0331 9.81037 27.1926 9.52644 27.4765C9.24251 27.7605 9.083 28.1456 9.083 28.5471V30.2121H7.57C7.16846 30.2121 6.78337 30.3716 6.49944 30.6555C6.21551 30.9395 6.056 31.3246 6.056 31.7261C6.056 32.1276 6.21551 32.5127 6.49944 32.7966C6.78337 33.0806 7.16846 33.2401 7.57 33.2401H9.083V36.2261C3.955 36.9641 0 41.3851 0 46.7151V82.4431C0 83.2791 0.678 83.9571 1.514 83.9571H75.998C76.834 83.9571 77.512 83.2791 77.512 82.4431V46.7151C77.512 41.3851 73.557 36.9641 68.429 36.2271ZM10.597 39.1451C14.253 39.1451 17.311 41.7501 18.015 45.2011H3.18C3.883 41.7501 6.942 39.1451 10.597 39.1451ZM18.167 80.9291H3.027V77.9001H18.167V80.9291ZM18.167 74.8731H3.027V48.2281H18.167V74.8731ZM66.915 39.1451C70.57 39.1451 73.629 41.7501 74.332 45.2011H59.497C60.2 41.7501 63.259 39.1451 66.915 39.1451ZM38.756 18.5551C47.672 18.5551 55.291 24.5151 56.222 31.8781H21.29C22.22 24.5151 29.84 18.5551 38.756 18.5551ZM30.43 80.9301H21.195V76.3881H30.43V80.9301ZM37.242 80.9541H33.457V72.4501C33.457 70.2701 35.056 68.4251 37.242 67.8301V80.9521V80.9541ZM44.055 80.9541H40.27V67.8311C42.456 68.4251 44.055 70.2711 44.055 72.4501V80.9511V80.9541ZM56.317 80.9301H47.083V76.3881H56.317V80.9301ZM56.317 73.3601H47.083V72.4521C47.083 68.1241 43.347 64.6031 38.756 64.6031C34.165 64.6031 30.43 68.1241 30.43 72.4521V73.3601H21.195V34.9061H56.317V73.3601ZM74.484 80.9301H59.345V77.9001H74.485V80.9281L74.484 80.9301ZM74.484 74.8741H59.345V48.2281H74.485V74.8731L74.484 74.8741Z" fill="black"/>
<path d="M87.69 7.16995C86.0545 7.17153 84.4863 7.82182 83.3296 8.97814C82.1729 10.1345 81.5221 11.7024 81.52 13.3379C81.52 16.7179 84.243 19.5079 87.69 19.5079C91.179 19.5079 93.859 16.6809 93.859 13.3379C93.8572 11.7022 93.2065 10.134 92.0498 8.9775C90.893 7.82096 89.3248 7.17053 87.689 7.16895L87.69 7.16995ZM87.69 17.4649C86.5957 17.4642 85.5465 17.0291 84.7727 16.2553C83.9989 15.4815 83.5638 14.4323 83.563 13.3379C83.567 12.2447 84.0031 11.1974 84.7762 10.4244C85.5494 9.65149 86.5968 9.21563 87.69 9.21195C89.957 9.21195 91.81 11.0709 91.81 13.3379C91.81 15.5779 90.005 17.4649 87.69 17.4649Z" fill="black" fill-opacity="0.5"/>
<path d="M87.69 1C80.888 1 75.353 6.535 75.353 13.338C75.353 15.637 75.989 17.88 77.194 19.826L86.99 35.61C87.177 35.912 87.508 36.096 87.863 36.096H87.871C88.23 36.093 88.561 35.904 88.745 35.596L98.29 19.66C99.4303 17.7485 100.032 15.5638 100.03 13.338C100.029 6.535 94.493 1 87.69 1ZM96.524 18.604L87.847 33.092L78.942 18.742C77.9338 17.1196 77.3981 15.2481 77.395 13.338C77.395 7.668 82.021 3.043 87.691 3.043C93.361 3.043 97.98 7.669 97.98 13.338C97.98 15.198 97.472 17.018 96.524 18.604Z" fill="black" fill-opacity="0.5"/>
</svg>
