<svg width="94" height="89" viewBox="0 0 94 89" fill="none" xmlns="http://www.w3.org/2000/svg">
<path d="M48.7119 39.9571C47.4246 40.6892 43.1271 42.8995 41.727 43.6364L40.8633 41.8304C42.2466 41.1024 46.3375 38.7028 47.5929 37.989C48.1359 37.6799 48.8274 37.87 49.1365 38.4135C49.4455 38.957 49.2556 39.6482 48.7119 39.9571Z" fill="black" fill-opacity="0.5"/>
<path d="M50.9131 76.1404H73.4504C74.0757 76.1404 74.5824 76.6472 74.5824 77.2724C74.5824 77.8976 74.0757 78.4044 73.4504 78.4044H50.9131V76.1404Z" fill="black" fill-opacity="0.5"/>
<path d="M75.9266 40.1182C69.4132 36.6901 63.7879 33.7294 63.7879 28.2141V23.2498L63.788 22.6703C63.7909 22.5133 63.7858 22.3173 63.788 22.1992C63.7909 22.0421 63.7862 21.8666 63.7879 21.6495C63.7909 21.2569 63.7909 21.1784 63.7909 21.0214L63.788 20.8733V14.7251H67.9819C69.562 14.7251 70.8476 13.4395 70.8476 11.8594V9.58804C70.8476 8.00787 69.5619 6.72233 67.9819 6.72233H63.788V4.02294C63.7879 2.44277 62.5022 1.15723 60.922 1.15723H58.6508C57.0707 1.15723 55.7851 2.44277 55.7851 4.02294V6.72233H51.5913C50.0111 6.72233 48.7256 8.00787 48.7256 9.58804V11.8592C48.7256 13.4394 50.0113 14.7249 51.5913 14.7249H55.7851V18.3216L55.785 18.8228C55.7819 18.9799 55.7819 19.1369 55.785 19.7651C55.7857 19.9055 55.7819 20.0791 55.785 20.2362V20.698V28.2138C55.785 31.0296 54.3864 33.324 51.2505 35.6534C50.7486 36.0263 50.6439 36.7354 51.0167 37.2372C51.3895 37.7393 52.0986 37.8437 52.6003 37.471C55.9155 35.0086 57.6512 32.4024 57.9879 29.3462H61.5843C62.2565 35.4818 68.3947 38.7124 74.8719 42.1213C82.6713 46.2262 90.7361 50.4708 90.7361 60.1372C90.7361 64.6208 89.5509 68.6985 87.2138 72.2575C85.8667 74.3089 84.5022 75.5881 83.935 76.0763H77.9788C77.3535 76.0763 76.8468 76.5831 76.8468 77.2083C76.8468 77.8335 77.3535 78.3403 77.9788 78.3403H84.3393C84.5836 78.3403 84.8213 78.2614 85.0171 78.115C85.3429 77.8714 93.0002 72.0118 93.0002 60.1372C93.0005 49.1043 83.9296 44.3303 75.9266 40.1182ZM56.9172 12.461H51.5913C51.2595 12.461 50.9897 12.1911 50.9897 11.8594V9.58804C50.9897 9.25628 51.2595 8.9864 51.5913 8.9864H56.9172C57.5425 8.9864 58.0492 8.47955 58.0492 7.85436V4.02294C58.0492 3.69118 58.3191 3.4213 58.6508 3.4213H60.922C61.2538 3.4213 61.5237 3.69118 61.5237 4.02294V7.85436C61.5237 8.47955 62.0304 8.9864 62.6557 8.9864H67.9816C68.3133 8.9864 68.5832 9.25628 68.5832 9.58804V11.8592C68.5832 12.191 68.3133 12.4609 67.9816 12.4609H62.6557C62.0304 12.4609 61.5237 12.9677 61.5237 13.5929V27.7741H58.0491V13.593C58.0492 12.9679 57.5425 12.461 56.9172 12.461ZM61.5238 28.6378V27.0821H58.0492V28.6378H61.5238Z" fill="black" fill-opacity="0.5"/>
<path d="M46.1519 68.6721L37.8527 65.1159C37.8488 65.1143 37.8452 65.1125 37.8412 65.111L34.229 63.5631C34.2302 63.5071 34.234 63.4513 34.234 63.3951V58.6262C36.673 56.4768 38.2144 53.3316 38.2144 49.8329V49.0331H39.3503C40.7834 49.0331 41.9494 47.8671 41.9494 46.434V43.2189C41.9494 42.0881 41.2222 41.1262 40.2118 40.7696V34.5933C40.2118 30.9704 37.4849 27.676 34.6681 25.7583C33.3459 24.8803 32.2418 23.6824 31.4753 22.2938C31.3373 22.0439 31.0967 21.8672 30.8169 21.8105C30.0372 21.6523 29.2373 21.572 28.4397 21.572C23.314 21.572 18.9394 24.847 17.2974 29.4139L16.5216 29.7007C14.2831 30.5285 12.779 32.6883 12.779 35.075V40.7696C11.7686 41.1262 11.0413 42.0881 11.0413 43.2189V46.434C11.0413 47.8671 12.2073 49.0331 13.6405 49.0331H14.7722V49.8329C14.7722 53.3339 16.3157 56.4809 18.7575 58.6305V63.3953C18.7575 63.4661 18.762 63.5364 18.764 63.6071L6.99717 68.723C3.35403 70.257 1 73.8017 1 77.7535V87.0266C1 87.564 1.43567 87.9997 1.97306 87.9997C2.51045 87.9997 2.94612 87.564 2.94612 87.0266V77.7534C2.94612 74.5866 4.8327 71.7459 7.76278 70.5121L14.9323 67.3951C15.3582 68.5103 15.9423 69.5558 16.6784 70.5128C16.87 70.762 17.1585 70.8926 17.4503 70.8926C17.6574 70.8926 17.866 70.8269 18.0429 70.6908C18.4688 70.3632 18.5486 69.7522 18.221 69.3263C17.5828 68.4964 17.0813 67.5877 16.7203 66.6176L19.076 65.5935C20.0302 68.8257 23.0232 71.134 26.4951 71.134C29.9913 71.134 32.9908 68.8066 33.928 65.5514L36.2927 66.5647C34.8025 70.6313 30.8882 73.4047 26.4951 73.4047C24.5765 73.4047 22.7014 72.8796 21.0723 71.8862C20.6136 71.6063 20.0148 71.7515 19.7349 72.2104C19.4551 72.6692 19.6003 73.2679 20.0592 73.5478C21.9934 74.7274 24.2189 75.3508 26.4951 75.3508C31.6717 75.3508 36.2876 72.1039 38.0827 67.3317L45.3742 70.4561C48.2119 71.7139 50.0454 74.5319 50.0454 77.6353V87.0266C50.0454 87.564 50.4811 87.9997 51.0185 87.9997C51.5559 87.9997 51.9916 87.564 51.9916 87.0266V77.6353C51.9916 73.7629 49.7037 70.2465 46.1519 68.6721ZM40.0034 46.434C40.0034 46.794 39.7105 47.087 39.3504 47.087H38.2166V42.566H39.3504C39.7105 42.566 40.0034 42.859 40.0034 43.219V46.434ZM13.6406 47.087C13.2806 47.087 12.9876 46.794 12.9876 46.434V43.2189C12.9876 42.8589 13.2806 42.5659 13.6406 42.5659H14.7723V47.0869L13.6406 47.087ZM16.7185 49.8329V48.1014C16.7191 48.0876 16.7205 48.0739 16.7205 48.0601V41.593C16.7205 41.5873 16.7197 41.5818 16.7196 41.5761C16.7401 40.9897 16.8943 39.9128 17.6695 38.9922C18.4496 38.0655 19.4438 37.7784 19.7705 37.684C21.0618 37.3111 21.8798 37.6858 23.0123 38.2042C24.1277 38.715 25.3918 39.2942 27.2624 39.2014C28.9511 39.118 30.0751 38.5276 30.9782 38.0531C31.9198 37.5584 32.4882 37.2596 33.437 37.5428C33.952 37.6967 34.494 37.4037 34.6477 36.8887C34.8014 36.3737 34.5086 35.8317 33.9935 35.6779C32.285 35.168 31.1099 35.7855 30.0731 36.3301C29.2634 36.7554 28.4262 37.1954 27.1664 37.2575C25.7707 37.3264 24.8243 36.8932 23.8226 36.4346C22.6005 35.875 21.2153 35.2408 19.2305 35.814C17.9771 36.1761 16.9511 36.8235 16.1808 37.7385C15.3637 38.7091 15.013 39.7784 14.8676 40.6198H14.7252V35.075C14.7252 33.6751 15.5099 32.3948 16.721 31.7429C16.6441 32.2867 16.6035 32.8422 16.6035 33.407C16.6035 33.9444 17.0392 34.3801 17.5766 34.3801C18.114 34.3801 18.5496 33.9444 18.5496 33.407C18.5496 27.9543 22.9864 23.5181 28.4398 23.5181C28.9642 23.5181 29.4897 23.5595 30.0074 23.6415C30.9091 25.1301 32.1399 26.4155 33.582 27.3729C36.1165 29.1021 37.8966 31.5347 38.2661 34.6495V40.6199H38.1715C38.0919 39.9768 37.8975 39.2326 37.4806 38.4827C37.2194 38.0129 36.6269 37.8437 36.1574 38.105C35.6877 38.366 35.5185 38.9586 35.7797 39.4282C36.2229 40.2255 36.2906 41.0243 36.2693 41.554C36.2688 41.567 36.2686 41.58 36.2686 41.593V49.8329C36.2686 55.2227 31.8836 59.6077 26.4936 59.6077C21.1035 59.6077 16.7185 55.2227 16.7185 49.8329ZM26.4951 69.1878C23.5722 69.1878 21.101 67.0039 20.7468 64.1061C20.7181 63.8745 20.7036 63.6354 20.7036 63.3951V60.0209C22.4126 60.9959 24.3889 61.5537 26.4933 61.5537C28.5997 61.5537 30.5778 60.9949 32.2878 60.0182V63.3951C32.2878 63.6235 32.2745 63.8509 32.2475 64.0746C31.9092 66.9897 29.4361 69.1878 26.4951 69.1878Z" fill="black" stroke="black"/>
<path d="M11.7494 79.7791C11.212 79.7791 10.7764 80.2147 10.7764 80.7521V87.0269C10.7764 87.5643 11.212 88 11.7494 88C12.2868 88 12.7225 87.5643 12.7225 87.0269V80.7521C12.7225 80.2147 12.2868 79.7791 11.7494 79.7791Z" fill="black" stroke="black"/>
<path d="M41.2699 79.7791C40.7325 79.7791 40.2969 80.2147 40.2969 80.7521V87.0269C40.2969 87.5643 40.7325 88 41.2699 88C41.8073 88 42.243 87.5643 42.243 87.0269V80.7521C42.243 80.2147 41.8073 79.7791 41.2699 79.7791Z" fill="black" stroke="black"/>
</svg>
