<svg width="106" height="89" viewBox="0 0 106 89" fill="none" xmlns="http://www.w3.org/2000/svg">
<g clip-path="url(#clip0_131_88)">
<path d="M104.842 89.0001C104.553 89.0001 104.277 88.8854 104.073 88.6814C103.869 88.4773 103.754 88.2006 103.754 87.9121L103.769 50.9251H53.7159L53.7009 87.9101C53.7009 88.1987 53.5862 88.4756 53.3821 88.6797C53.178 88.8839 52.9011 88.9986 52.6124 88.9986C52.3237 88.9986 52.0469 88.8839 51.8427 88.6797C51.6386 88.4756 51.5239 88.1987 51.5239 87.9101L51.5399 49.8361C51.5399 49.2361 52.0269 48.7481 52.6279 48.7481H104.857C105 48.7475 105.142 48.7753 105.274 48.8299C105.407 48.8844 105.527 48.9646 105.628 49.0658C105.729 49.1671 105.81 49.2873 105.864 49.4197C105.919 49.552 105.946 49.6939 105.946 49.8371L105.931 87.9121C105.931 88.5131 105.443 89.0001 104.842 89.0001Z" fill="black" fill-opacity="0.5"/>
<path d="M52.6269 50.925C52.42 50.9248 52.2175 50.8657 52.0429 50.7546C51.8684 50.6435 51.7291 50.485 51.6414 50.2976C51.5537 50.1102 51.5211 49.9017 51.5476 49.6965C51.5741 49.4913 51.6585 49.2979 51.7909 49.139L57.2309 42.609C57.4176 42.393 57.6815 42.2589 57.966 42.2356C58.2505 42.2123 58.5328 42.3016 58.7521 42.4843C58.9714 42.667 59.1102 42.9285 59.1386 43.2126C59.167 43.4966 59.0827 43.7804 58.9039 44.003L53.4639 50.533C53.2479 50.792 52.9389 50.925 52.6269 50.925ZM104.903 50.95C104.588 50.95 104.275 50.82 104.057 50.567L98.5619 44.173C98.4697 44.0665 98.4001 43.9425 98.3572 43.8084C98.3143 43.6742 98.299 43.5328 98.3122 43.3926C98.3255 43.2524 98.3671 43.1164 98.4344 42.9927C98.5017 42.869 98.5934 42.7602 98.7039 42.673C98.9296 42.4915 99.2168 42.4043 99.5053 42.4296C99.7938 42.4549 100.061 42.5909 100.252 42.809L105.746 49.203C105.838 49.3094 105.908 49.4334 105.951 49.5676C105.994 49.7017 106.009 49.8431 105.996 49.9833C105.982 50.1235 105.941 50.2596 105.873 50.3833C105.806 50.5069 105.714 50.6157 105.604 50.703C105.406 50.8633 105.158 50.9505 104.903 50.95ZM93.9619 47.66H63.4949C63.2064 47.66 62.9296 47.5453 62.7256 47.3413C62.5216 47.1373 62.4069 46.8605 62.4069 46.572C62.4069 46.2834 62.5216 46.0067 62.7256 45.8026C62.9296 45.5986 63.2064 45.484 63.4949 45.484H93.9619C94.2505 45.484 94.5272 45.5986 94.7313 45.8026C94.9353 46.0067 95.0499 46.2834 95.0499 46.572C95.0499 46.8605 94.9353 47.1373 94.7313 47.3413C94.5272 47.5453 94.2505 47.66 93.9619 47.66ZM104.842 88.999H52.6119C52.3233 88.999 52.0464 88.8843 51.8423 88.6801C51.6381 88.476 51.5234 88.1992 51.5234 87.9105C51.5234 87.6218 51.6381 87.3449 51.8423 87.1408C52.0464 86.9366 52.3233 86.822 52.6119 86.822H104.842C105.131 86.822 105.407 86.9366 105.612 87.1408C105.816 87.3449 105.93 87.6218 105.93 87.9105C105.93 88.1992 105.816 88.476 105.612 88.6801C105.407 88.8843 105.131 88.999 104.842 88.999Z" fill="black" fill-opacity="0.5"/>
<path d="M84.1761 47.656C83.8875 47.656 83.6108 47.5414 83.4068 47.3373C83.2027 47.1333 83.0881 46.8565 83.0881 46.568C83.0881 44.167 81.1351 42.214 78.7341 42.214C77.5798 42.2153 76.4733 42.6745 75.6572 43.4908C74.8411 44.307 74.3821 45.4137 74.3811 46.568C74.3811 46.8567 74.2664 47.1335 74.0623 47.3377C73.8581 47.5418 73.5813 47.6565 73.2926 47.6565C73.0039 47.6565 72.727 47.5418 72.5229 47.3377C72.3188 47.1335 72.2041 46.8567 72.2041 46.568C72.2059 44.8367 72.8945 43.1768 74.1187 41.9526C75.3429 40.7284 77.0028 40.0398 78.7341 40.038C80.4654 40.0398 82.1252 40.7284 83.3494 41.9526C84.5737 43.1768 85.2622 44.8367 85.2641 46.568C85.2641 47.168 84.7781 47.656 84.1761 47.656ZM69.7721 25.62C69.4834 25.62 69.2065 25.5053 69.0024 25.3012C68.7983 25.097 68.6836 24.8202 68.6836 24.5315C68.6836 24.2428 68.7983 23.9659 69.0024 23.7618C69.2065 23.5577 69.4834 23.443 69.7721 23.443C70.9721 23.443 71.9491 22.467 71.9491 21.266C71.9491 20.9774 72.0637 20.7007 72.2678 20.4966C72.4718 20.2926 72.7485 20.178 73.0371 20.178C73.3256 20.178 73.6024 20.2926 73.8064 20.4966C74.0105 20.7007 74.1251 20.9774 74.1251 21.266C74.1251 23.667 72.1731 25.62 69.7721 25.62ZM87.6981 25.62C86.5438 25.6187 85.4373 25.1595 84.6212 24.3432C83.8051 23.5269 83.3462 22.4202 83.3451 21.266C83.3451 20.9774 83.4597 20.7007 83.6638 20.4966C83.8678 20.2926 84.1445 20.178 84.4331 20.178C84.7216 20.178 84.9984 20.2926 85.2024 20.4966C85.4065 20.7007 85.5211 20.9774 85.5211 21.266C85.5211 22.466 86.4981 23.443 87.6981 23.443C87.9868 23.443 88.2636 23.5577 88.4678 23.7618C88.6719 23.9659 88.7866 24.2428 88.7866 24.5315C88.7866 24.8202 88.6719 25.097 88.4678 25.3012C88.2636 25.5053 87.9868 25.62 87.6981 25.62Z" fill="black"/>
<path d="M68.9399 44.395H58.0699C57.7814 44.395 57.5046 44.2804 57.3006 44.0763C57.0966 43.8723 56.9819 43.5955 56.9819 43.307C56.9819 43.0184 57.0966 42.7417 57.3006 42.5377C57.5046 42.3336 57.7814 42.219 58.0699 42.219H68.9399C69.2285 42.219 69.5052 42.3336 69.7093 42.5377C69.9133 42.7417 70.0279 43.0184 70.0279 43.307C70.0279 43.5955 69.9133 43.8723 69.7093 44.0763C69.5052 44.2804 69.2285 44.395 68.9399 44.395ZM99.4169 44.395H88.5309C88.2424 44.395 87.9656 44.2804 87.7616 44.0763C87.5576 43.8723 87.4429 43.5955 87.4429 43.307C87.4429 43.0184 87.5576 42.7417 87.7616 42.5377C87.9656 42.3336 88.2424 42.219 88.5309 42.219H99.4169C99.7055 42.219 99.9822 42.3336 100.186 42.5377C100.39 42.7417 100.505 43.0184 100.505 43.307C100.505 43.5955 100.39 43.8723 100.186 44.0763C99.9822 44.2804 99.7055 44.395 99.4169 44.395Z" fill="black" fill-opacity="0.5"/>
<path d="M88.5301 47.6599H68.9401C68.6515 47.6599 68.3748 47.5453 68.1708 47.3413C67.9667 47.1372 67.8521 46.8605 67.8521 46.5719V20.4339C67.8521 19.8339 68.3381 19.3459 68.9401 19.3459H88.5301C89.1321 19.3459 89.6181 19.8339 89.6181 20.4339V46.5719C89.6181 47.1719 89.1321 47.6599 88.5301 47.6599ZM70.0281 45.4839H87.4421V21.5229H70.0281V45.4839ZM77.7501 74.0829V70.4799C77.7501 70.1559 77.7131 70.1199 77.3851 70.1199H70.1801C69.8541 70.1199 69.8181 70.1559 69.8161 70.4819C69.8141 71.1209 69.8101 71.7579 69.8201 72.3969C69.8221 72.568 69.7801 72.6309 69.5981 72.6269C69.0355 72.6161 68.4727 72.6155 67.9101 72.6249C67.7561 72.6269 67.7151 72.5779 67.7151 72.424C67.7211 70.1899 67.7211 67.9549 67.7151 65.7219C67.7151 65.5519 67.7701 65.5099 67.9271 65.5119C68.4881 65.5189 69.0521 65.521 69.6141 65.5099C69.7891 65.5059 69.8221 65.576 69.8201 65.7319C69.8121 66.3799 69.8161 67.0249 69.8181 67.6719C69.8181 67.9799 69.8581 68.0179 70.1721 68.0179H77.4021C77.7121 68.0179 77.7511 67.9779 77.7511 67.6659V60.4359C77.7511 60.1259 77.7111 60.0859 77.4011 60.0859C76.7531 60.0829 76.1081 60.0789 75.4611 60.0869C75.2981 60.0889 75.2411 60.0469 75.2431 59.8769C75.2522 59.3146 75.2522 58.7522 75.2431 58.1899C75.2411 58.0249 75.2931 57.9819 75.4571 57.9819C77.6821 57.9889 79.9091 57.9869 82.1341 57.9839C82.2821 57.9839 82.3601 58.0029 82.3581 58.1819C82.3489 58.7532 82.3489 59.3246 82.3581 59.8959C82.3601 60.0589 82.2951 60.0889 82.1501 60.0869C81.5031 60.0809 80.8571 60.0829 80.2101 60.0849C79.8941 60.0849 79.8521 60.1259 79.8521 60.4269V67.6849C79.8521 67.9749 79.8961 68.0199 80.1921 68.0199H87.4491C87.7421 68.0199 87.7851 67.9779 87.7871 67.6829C87.7891 67.0349 87.7931 66.3899 87.7851 65.7429C87.7831 65.5719 87.8251 65.5079 88.0071 65.5129C88.5691 65.5249 89.1331 65.5229 89.6941 65.5139C89.8491 65.5129 89.8901 65.561 89.8901 65.716C89.8841 67.949 89.8841 70.1839 89.8901 72.4179C89.8901 72.5879 89.8351 72.6289 89.6781 72.6279C89.1155 72.6201 88.5527 72.6205 87.9901 72.6289C87.8151 72.6329 87.7831 72.5639 87.7851 72.4089C87.7931 71.7619 87.7891 71.1169 87.7871 70.4689C87.7871 70.1619 87.7471 70.1229 87.4331 70.1229H80.2001C79.8931 70.1229 79.8521 70.1639 79.8521 70.4749V77.7059C79.8521 78.0159 79.8901 78.0559 80.2021 78.0559C80.8491 78.0579 81.4951 78.0629 82.1421 78.0549C82.3051 78.0519 82.3621 78.0949 82.3601 78.2649C82.3501 78.8259 82.3521 79.3899 82.3601 79.952C82.3621 80.117 82.3091 80.1589 82.1461 80.1589C79.9204 80.1542 77.6948 80.1536 75.4691 80.1569C75.3201 80.1569 75.2411 80.1389 75.2451 79.9599C75.2551 79.3899 75.2531 78.8179 75.2451 78.2459C75.2431 78.083 75.3081 78.0519 75.4531 78.0549C76.1081 78.0609 76.7631 78.0579 77.4171 78.0559C77.7081 78.0549 77.7511 78.0099 77.7511 77.7149C77.7491 76.5009 77.7501 75.2919 77.7501 74.0829Z" fill="black"/>
<path d="M73.82 65.3151C73.82 65.8481 73.82 65.8481 73.288 65.8481C72.744 65.8481 72.74 65.8481 72.746 65.3031C72.754 64.5191 72.75 64.5931 72.034 64.5941C71.49 64.5941 71.49 64.5941 71.49 64.0491C71.49 63.5131 71.49 63.5111 72.02 63.5131C72.769 63.5151 72.752 63.5741 72.746 62.7931C72.742 62.2591 72.746 62.2591 73.278 62.2591C73.819 62.2591 73.823 62.2591 73.819 62.8071C73.813 63.5801 73.811 63.5131 74.536 63.5131C75.076 63.5131 75.076 63.5131 75.076 64.0631C75.076 64.5941 75.076 64.5941 74.542 64.5941C73.795 64.5901 73.811 64.5211 73.819 65.3141L73.82 65.3151ZM83.065 74.6261C82.523 74.6261 82.523 74.6261 82.523 74.0761C82.523 73.5461 82.523 73.5461 83.055 73.5461C83.8 73.5461 83.783 73.6151 83.777 72.8231C83.773 72.2891 83.777 72.2891 84.307 72.2891C84.85 72.2891 84.854 72.2891 84.85 72.8351C84.842 73.6171 84.844 73.5451 85.56 73.5451C86.106 73.5451 86.106 73.5451 86.106 74.0891C86.106 74.6261 86.106 74.6261 85.577 74.6261C84.827 74.6241 84.844 74.5661 84.85 75.3461C84.854 75.8801 84.85 75.8801 84.319 75.8801C83.775 75.8801 83.771 75.8801 83.777 75.3331C83.787 74.5571 83.787 74.6261 83.065 74.6261ZM85.547 64.5921C84.837 64.5881 84.849 64.5421 84.855 65.2951C84.859 65.8461 84.855 65.8461 84.293 65.8461C83.78 65.8461 83.78 65.8461 83.78 65.3461C83.78 65.1861 83.784 65.0261 83.778 64.8671C83.772 64.6881 83.678 64.5901 83.491 64.5921C83.231 64.5941 82.97 64.5861 82.711 64.5941C82.577 64.5991 82.514 64.5721 82.522 64.4191C82.534 64.1691 82.53 63.9171 82.522 63.6641C82.518 63.5421 82.562 63.5051 82.681 63.5091C82.941 63.5161 83.202 63.5071 83.461 63.5111C83.685 63.5161 83.781 63.4061 83.781 63.1881C83.778 62.9351 83.784 62.6851 83.778 62.4321C83.774 62.3121 83.794 62.2471 83.939 62.2531C84.189 62.2631 84.442 62.2631 84.694 62.2531C84.837 62.2471 84.861 62.3081 84.857 62.4311C84.849 62.6731 84.853 62.9171 84.855 63.1611C84.859 63.4361 84.926 63.5051 85.197 63.5091C85.449 63.5131 85.7 63.5161 85.952 63.5091C86.07 63.5051 86.117 63.5391 86.112 63.6641C86.1001 63.907 86.1005 64.1503 86.113 64.3931C86.125 64.5701 86.053 64.6091 85.897 64.5941C85.783 64.5821 85.665 64.5921 85.547 64.5921ZM72.06 73.5451C72.745 73.5451 72.745 73.5451 72.745 72.8591C72.745 72.2911 72.745 72.2911 73.317 72.2911C73.82 72.2911 73.824 72.2911 73.82 72.8011C73.814 73.6371 73.8 73.5431 74.57 73.5451C75.076 73.5471 75.076 73.5451 75.076 74.0551C75.076 74.6261 75.076 74.6261 74.508 74.6261C73.822 74.6261 73.822 74.6261 73.822 75.3101C73.822 75.8801 73.822 75.8801 73.252 75.8801C72.747 75.8801 72.745 75.8801 72.749 75.3701C72.755 74.5501 72.777 74.6261 71.994 74.6261C71.493 74.6261 71.493 74.6261 71.493 74.1381V74.1131C71.489 73.5451 71.488 73.5451 72.06 73.5451Z" fill="black"/>
<path d="M48.024 27.7139C47.244 27.8419 45.704 28.4219 43.912 28.9259C43.812 28.9539 43.828 31.6029 43.828 31.6029C43.828 31.6029 47.732 30.1799 48.153 30.0799C48.851 29.9139 49.458 30.3039 49.666 30.9899C49.944 31.9139 49.409 32.4289 48.857 32.7149C47.272 33.5349 42.144 36.2579 42.144 36.2579L43.066 38.2649C43.066 38.2649 48.086 35.6469 50.2 34.6219C51.609 33.9379 52.452 31.7899 51.83 30.1239C51.062 28.0699 48.918 27.5679 48.024 27.7139ZM5.07796 38.3359C4.84796 39.1419 5.05196 39.7119 5.80196 40.1829C6.96756 40.909 8.20723 41.5087 9.49996 41.9719C11.561 42.6999 13.6 43.5339 15.738 43.9799C18.818 44.6259 21.547 43.9759 23.802 41.6709C24.632 40.8199 25.575 40.0849 26.425 39.2759C26.914 38.8189 26.943 38.1469 26.539 37.6699C26.103 37.1809 25.579 37.0909 25.007 37.4409C24.8388 37.5403 24.6825 37.6583 24.541 37.7929C23.607 38.6429 22.651 39.4729 21.758 40.3429C20.418 41.6729 18.785 42.1669 17.003 41.7889C13.472 41.0419 10.007 39.9819 6.89896 38.0529C6.43996 37.7749 5.98896 37.7799 5.49396 37.8889C5.36611 38.0477 5.22709 38.197 5.07796 38.3359Z" fill="black" fill-opacity="0.5"/>
<path d="M43.5399 61.6901C43.4679 61.1591 43.7599 40.0801 43.7599 40.0801C43.7599 40.0801 41.3509 40.7401 41.3799 41.6771C41.4599 44.3041 41.4079 59.4101 41.2829 61.5111C41.2489 62.0801 41.0759 62.4591 40.1699 62.4981C39.1719 62.5411 39.2029 62.1721 38.9179 61.6461C38.6589 61.1711 39.0669 52.0331 39.0659 47.6731C39.0659 47.1231 38.6609 46.4071 37.8199 46.5031C36.9589 46.5991 36.7579 47.3041 36.7529 47.8551C36.7499 48.1591 36.6509 51.3211 36.6459 51.9071C36.6179 54.9711 36.5679 61.0841 36.6049 61.8341C36.6679 63.1241 37.4589 64.7191 39.9389 64.8071C42.6349 64.9031 43.6879 62.7941 43.5399 61.6901Z" fill="black"/>
<path d="M29.294 34.5809C36.153 32.0369 37.104 31.5229 37.104 31.5229L37.233 33.9929C37.233 33.9929 35.914 34.45 29.741 36.74C29.207 36.938 28.666 36.544 28.49 35.99C28.298 35.386 28.699 34.8009 29.294 34.5809Z" fill="black" fill-opacity="0.5"/>
<mask id="mask0_131_88" style="mask-type:luminance" maskUnits="userSpaceOnUse" x="34" y="2" width="14" height="17">
<path d="M40.9229 16.53C42.0845 16.5058 43.1889 16.0214 43.9933 15.1832C44.7978 14.345 45.2365 13.2216 45.2129 12.06C45.1629 9.64 43.1019 4.821 40.6819 4.87C38.2619 4.92 36.4019 9.819 36.4509 12.239C36.4748 13.4012 36.9594 14.5063 37.798 15.3112C38.6367 16.1161 39.7607 16.5538 40.9229 16.53Z" stroke="black" stroke-width="4"/>
</mask>
<g mask="url(#mask0_131_88)">
<path d="M40.9229 16.53C42.0845 16.5058 43.1889 16.0214 43.9933 15.1832C44.7978 14.345 45.2365 13.2216 45.2129 12.06C45.1629 9.64 43.1019 4.821 40.6819 4.87C38.2619 4.92 36.4019 9.819 36.4509 12.239C36.4748 13.4012 36.9594 14.5063 37.798 15.3112C38.6367 16.1161 39.7607 16.5538 40.9229 16.53Z" stroke="black" stroke-width="4"/>
</g>
<path d="M37.1141 21.963C37.1841 22.494 36.9441 36.353 36.9441 36.353C36.9441 36.353 39.3421 36.531 39.3161 35.594C39.2421 32.967 39.2411 24.248 39.3711 22.148C39.4061 21.579 39.5801 21.2 40.4861 21.163C41.4841 21.123 41.4521 21.492 41.7361 22.019C41.9931 22.495 41.5491 28.95 41.7061 33.469C41.7241 34.019 42.4141 34.196 42.9581 34.115C43.5031 34.033 43.9611 33.68 43.9681 33.129L43.9691 32.993L43.9841 31.763C44.0191 28.7 44.0841 22.586 44.0501 21.836C43.9901 20.546 43.2031 18.949 40.7231 18.855C38.0271 18.752 36.9701 20.858 37.1151 21.963H37.1141Z" fill="black"/>
<path d="M44.0759 37.177C45.2299 39.39 43.5329 41.358 42.5519 41.675L42.5479 41.677C42.3039 41.755 36.3739 43.665 35.1489 45.787C34.6049 47.357 33.9959 50.029 32.0789 52.212C30.7989 53.877 29.2669 54.542 27.6329 54.994C25.4829 55.59 22.0079 55.399 15.0529 52.742C13.8859 52.456 13.7529 51.623 13.9159 51.152C14.2399 50.421 14.9759 50.325 16.1799 50.707C25.5409 54.234 27.7099 52.645 28.8249 51.962C30.2539 51.086 31.6409 49.317 32.9519 45.026C33.7449 42.434 39.7179 40.501 41.4219 39.56C41.8829 39.306 42.3439 38.91 41.8579 38.2C41.3359 37.437 40.8969 37.423 40.3439 37.394C39.8439 37.368 34.5169 40.014 30.6779 41.674C30.2099 41.875 29.7899 41.369 29.6419 40.881C29.4939 40.394 29.6079 39.871 30.0659 39.647L31.2009 39.093C33.7479 37.85 38.8879 35.551 39.5289 35.283C40.6309 34.823 43.0149 35.142 44.0759 37.177Z" fill="black" fill-opacity="0.5"/>
</g>
<defs>
<clipPath id="clip0_131_88">
<rect width="106" height="89" fill="white"/>
</clipPath>
</defs>
</svg>
