<svg width="75" height="76" viewBox="0 0 75 76" fill="none" xmlns="http://www.w3.org/2000/svg">
<g clip-path="url(#clip0_131_104)">
<path d="M0.0420996 74.513C0.4021 73.806 0.9951 73.603 1.7601 73.633C2.3241 73.661 3.0751 73.893 3.4071 73.531C3.6811 73.228 3.5081 72.477 3.5081 71.928V49.614C3.5081 47.881 4.3601 46.567 5.8041 46.061C8.1011 45.267 10.4121 46.899 10.4261 49.397C10.4551 53.485 10.4411 57.587 10.4261 61.674C10.4261 62.511 9.9641 63.06 9.3001 63.074C8.6061 63.089 8.1301 62.511 8.1301 61.63V49.426C8.1301 48.386 7.2341 47.794 6.3971 48.271C5.9341 48.531 5.8191 48.964 5.8191 49.498C5.8331 55.968 5.8331 62.454 5.8331 68.924C5.8331 70.296 5.8481 71.668 5.8191 73.04C5.8041 73.473 5.8771 73.661 6.3821 73.661C8.1301 73.647 8.1301 73.676 8.1301 71.928V66.873C8.1301 66.295 8.3601 65.863 8.9391 65.645C9.4151 65.458 9.7911 65.645 10.1091 65.963C10.4121 66.267 10.4411 66.685 10.4411 67.104C10.4261 69.097 10.4551 71.104 10.4261 73.098C10.4261 73.531 10.4981 73.69 10.9751 73.661C11.793 73.6248 12.6122 73.6248 13.4301 73.661C13.7911 73.676 13.9361 73.589 13.9211 73.185C13.8921 72.6069 13.9071 72.029 13.9071 71.451V49.571C13.9071 47.895 14.7731 46.581 16.1741 46.076C18.3981 45.281 20.6941 46.812 20.8241 49.224C20.8831 50.38 20.8541 51.535 20.8391 52.69C20.8251 53.456 20.3051 54.005 19.6691 53.99C19.0191 53.976 18.5431 53.441 18.5291 52.661C18.5141 51.578 18.5291 50.495 18.5291 49.411C18.5291 48.646 18.0661 48.126 17.3871 48.112C16.7231 48.098 16.2171 48.617 16.2171 49.369C16.2171 57.283 16.2171 65.212 16.2031 73.127C16.2031 73.531 16.3041 73.647 16.7231 73.647C18.5291 73.661 18.5291 73.676 18.5291 71.899V62.367C18.5291 61.746 18.7161 61.24 19.3661 61.009C19.8431 60.836 20.2181 61.024 20.5221 61.342C20.8251 61.659 20.8391 62.064 20.8391 62.482C20.8391 65.949 20.8541 69.415 20.8111 72.882C20.7961 73.546 20.9981 73.69 21.6051 73.632C22.3019 73.5742 23.0023 73.5742 23.6991 73.632C24.2331 73.676 24.3061 73.473 24.3061 72.982C24.2911 65.183 24.2911 57.384 24.2911 49.585C24.2911 47.852 25.1431 46.538 26.5881 46.032C28.8261 45.252 31.1801 46.798 31.2091 49.21C31.2671 54.221 31.2391 59.218 31.2241 64.23C31.2241 64.981 30.6601 65.544 30.0391 65.516C29.3751 65.486 28.9271 64.938 28.9271 64.086V49.426C28.9271 48.386 28.0611 47.78 27.2091 48.228C26.7321 48.488 26.6021 48.906 26.6021 49.441C26.6161 52.763 26.6161 56.084 26.6161 59.406C26.6161 63.926 26.6311 68.462 26.6021 72.983C26.6021 73.473 26.7031 73.6329 27.2231 73.618C28.9271 73.589 28.9271 73.618 28.9271 71.914V69.386C28.9271 68.433 29.3611 67.856 30.0681 67.841C30.7761 67.826 31.2381 68.419 31.2381 69.357C31.2381 70.585 31.2671 71.813 31.2241 73.04C31.2091 73.531 31.3681 73.6469 31.8301 73.618C32.5756 73.5673 33.3236 73.5673 34.0691 73.618C34.6321 73.6609 34.7191 73.459 34.7191 72.939C34.7041 66.685 34.6621 60.229 34.6621 53.975C34.6621 51.88 36.6841 50.508 38.1281 50.508C39.6061 50.508 41.5941 51.484 41.5941 53.974C41.5941 54.552 41.6881 70.09 41.5941 70.656C41.5941 71.595 40.9461 71.882 40.4391 71.883C39.9691 71.885 39.2841 71.595 39.2841 70.663V53.99C39.2841 53.541 38.7061 52.891 38.1281 52.891C37.4781 52.891 36.9711 53.671 36.9731 53.991C36.9871 59.724 36.9731 65.53 36.9731 71.264C36.9731 71.884 37.0161 72.52 36.9731 73.141C36.9731 73.6889 37.3921 73.632 37.7671 73.618C38.5621 73.589 43.7021 73.575 44.4971 73.618C45.0171 73.6469 45.1171 73.474 45.1171 72.983C45.1031 68.433 45.1031 63.883 45.1031 59.334C45.1031 57.659 45.9701 56.344 47.3851 55.854C49.6531 55.059 51.9491 56.648 52.0211 59.103C52.0651 60.793 52.0361 62.468 52.0211 64.158C52.0211 64.981 51.5011 65.544 50.8371 65.516C50.1871 65.501 49.7251 64.952 49.7101 64.172C49.6961 62.54 49.7101 60.894 49.7101 59.262C49.7101 58.439 49.2631 57.919 48.5551 57.904C47.8621 57.89 47.4001 58.424 47.4001 59.247C47.4001 63.826 47.4141 68.39 47.3851 72.968C47.3851 73.531 47.5441 73.632 48.0641 73.618C49.7101 73.589 49.7101 73.618 49.7101 71.928C49.7101 71.018 49.6961 70.094 49.7101 69.184C49.7251 68.404 50.1871 67.855 50.8221 67.841C51.4871 67.812 51.9921 68.39 52.0071 69.199C52.0211 70.4689 52.0361 71.755 52.0071 73.026C51.9921 73.488 52.1071 73.632 52.5851 73.632C54.1731 73.603 55.7621 73.632 57.3511 73.618C58.0581 73.618 58.6651 73.748 58.8811 74.513C59.0841 75.235 58.5931 75.597 58.0871 75.929H0.8941C0.4031 75.842 0.1141 75.5529 0.0270996 75.062C0.0420996 74.903 0.0420996 74.702 0.0420996 74.513ZM33.7241 23.79C34.3541 23.349 35.8181 22.706 37.4071 21.84C37.4971 21.79 39.2851 23.645 39.2851 23.645C39.2851 23.645 35.6021 25.305 35.2411 25.522C34.6421 25.882 34.4851 26.564 34.8071 27.183C35.2411 28.015 35.9631 28.009 36.5401 27.833C38.2021 27.328 43.6181 25.739 43.6181 25.739L44.3401 27.761C44.3401 27.761 39.0681 29.349 36.9021 30.071C35.4581 30.553 33.4121 29.631 32.7131 28.05C31.8521 26.1 33.0031 24.295 33.7241 23.79ZM70.8121 2.00996C71.5201 2.41496 71.7651 2.94996 71.5631 3.78696C71.2452 5.08333 70.7899 6.34211 70.2051 7.54196C69.2671 9.44896 68.4151 11.413 67.2301 13.175C65.5261 15.717 63.1861 17.118 60.0521 17.045C58.8971 17.017 57.7421 17.147 56.6001 17.161C55.9501 17.176 55.4741 16.728 55.4301 16.121C55.4021 15.486 55.7051 15.067 56.3401 14.923C56.5247 14.8773 56.7139 14.8528 56.9041 14.85C58.1311 14.807 59.3591 14.735 60.5721 14.735C62.4061 14.749 63.8801 13.984 64.8621 12.511C66.8121 9.59296 68.5021 6.50296 69.3531 3.05096C69.4831 2.54496 69.8011 2.24096 70.2201 1.98096C70.4221 2.01096 70.6241 2.00996 70.8121 2.00996Z" fill="black" fill-opacity="0.5"/>
<path d="M0.042079 75.0911C0.259079 75.4521 0.548079 75.7411 0.909079 75.9581C0.172079 76.1171 -0.116921 75.8281 0.042079 75.0911Z" fill="black"/>
<path d="M19.6701 56.3149C20.2471 56.3009 20.8401 56.8929 20.8401 57.4709C20.8401 58.0199 20.2761 58.5969 19.7421 58.6259C19.1641 58.6559 18.5581 58.0919 18.5431 57.4999C18.5141 56.9219 19.0771 56.3299 19.6701 56.3149Z" fill="black" fill-opacity="0.5"/>
<path d="M30.3838 10.457C30.0714 10.7499 29.7043 10.9783 29.3036 11.1293C28.9028 11.2803 28.4763 11.3508 28.0483 11.3369C27.6202 11.3229 27.1992 11.2248 26.8091 11.0481C26.419 10.8714 26.0676 10.6196 25.7748 10.307C25.1078 9.59499 24.3118 8.13499 23.8968 6.64299C23.6918 5.90699 23.5988 5.22599 23.6328 4.67499C23.6678 4.11899 23.8238 3.80699 23.9988 3.64299C24.1738 3.47899 24.4958 3.34299 25.0538 3.34499C25.6048 3.34499 26.2788 3.48299 26.9998 3.73499C28.4618 4.24599 29.8668 5.13599 30.5338 5.84799C30.8267 6.16042 31.0552 6.5275 31.2061 6.92824C31.3571 7.32899 31.4276 7.75555 31.4137 8.18357C31.3998 8.61158 31.3017 9.03266 31.125 9.42274C30.9482 9.81282 30.6964 10.1643 30.3838 10.457Z" stroke="black" stroke-width="2"/>
<path d="M7.00414 43.515C6.57595 43.515 6.15195 43.4306 5.75636 43.2668C5.36078 43.1029 5.00135 42.8626 4.69862 42.5598C4.39589 42.257 4.15578 41.8975 3.99201 41.5019C3.82823 41.1062 3.74401 40.6822 3.74414 40.254C3.74414 39.279 4.16014 37.668 4.87814 36.296C5.23214 35.619 5.62914 35.058 6.03114 34.68C6.43714 34.298 6.76414 34.177 7.00414 34.177C7.24414 34.177 7.57114 34.298 7.97714 34.68C8.37914 35.058 8.77714 35.619 9.13114 36.296C9.84814 37.668 10.2651 39.279 10.2651 40.254C10.2651 42.054 8.80514 43.515 7.00414 43.515ZM17.5481 43.515C17.1199 43.515 16.6959 43.4306 16.3004 43.2668C15.9048 43.1029 15.5454 42.8626 15.2426 42.5598C14.9399 42.257 14.6998 41.8975 14.536 41.5019C14.3722 41.1062 14.288 40.6822 14.2881 40.254C14.2881 39.279 14.7041 37.668 15.4211 36.296C15.7761 35.619 16.1731 35.058 16.5751 34.68C16.9811 34.298 17.3081 34.177 17.5481 34.177C17.7881 34.177 18.1151 34.298 18.5211 34.68C18.9231 35.058 19.3211 35.619 19.6741 36.296C20.3921 37.668 20.8091 39.279 20.8091 40.254C20.8091 42.054 19.3491 43.515 17.5481 43.515ZM28.0911 43.515C27.6629 43.515 27.2389 43.4306 26.8434 43.2668C26.4478 43.1029 26.0884 42.8626 25.7856 42.5598C25.4829 42.257 25.2428 41.8975 25.079 41.5019C24.9152 41.1062 24.831 40.6822 24.8311 40.254C24.8311 39.279 25.2471 37.668 25.9651 36.296C26.3191 35.619 26.7161 35.058 27.1181 34.68C27.5241 34.298 27.8511 34.177 28.0911 34.177C28.3311 34.177 28.6581 34.298 29.0641 34.68C29.4661 35.058 29.8641 35.619 30.2171 36.296C30.9351 37.668 31.3521 39.279 31.3521 40.254C31.3521 42.054 29.8921 43.515 28.0911 43.515ZM38.2011 48.353C36.2611 48.353 34.9411 47.018 34.9411 45.663C34.9411 44.876 35.3371 43.522 36.0451 42.349C36.3911 41.776 36.7801 41.299 37.1751 40.979C37.5701 40.656 37.9141 40.532 38.2011 40.532C38.4891 40.532 38.8331 40.656 39.2281 40.978C39.6231 41.3 40.0121 41.775 40.3581 42.349C41.0651 43.522 41.4621 44.876 41.4621 45.662C41.4621 47.018 40.1421 48.352 38.2021 48.352L38.2011 48.353ZM48.3101 52.975C46.3701 52.975 45.0501 51.64 45.0501 50.284C45.0501 49.498 45.4471 48.144 46.1541 46.971C46.5001 46.397 46.8891 45.921 47.2841 45.6C47.6791 45.278 48.0231 45.154 48.3111 45.154C48.5981 45.154 48.9431 45.278 49.3371 45.6C49.7321 45.922 50.1211 46.397 50.4671 46.971C51.1751 48.143 51.5711 49.498 51.5711 50.284C51.5711 51.64 50.2511 52.974 48.3111 52.974L48.3101 52.975Z" stroke="black" stroke-opacity="0.5" stroke-width="2"/>
<path d="M37.4059 12.38C37.7189 12.796 47.2999 22.273 47.2999 22.273C47.2999 22.273 45.7509 24.025 45.1329 23.356C43.3999 21.478 37.4789 15.412 35.9629 14.04C35.5509 13.669 35.1729 13.523 34.5179 14.113C33.7959 14.763 34.0689 14.997 34.2279 15.557C34.3729 16.062 39.0679 20.2509 42.0279 23.5C42.3879 23.896 42.0279 24.4869 41.5949 24.7999C41.1599 25.1139 40.6019 25.1789 40.2229 24.7999L40.1269 24.705L39.2839 23.861C37.1789 21.754 32.9809 17.5469 32.4959 17.0009C31.6609 16.0619 31.1239 14.418 32.7849 12.668C34.5909 10.766 36.7569 11.513 37.4059 12.379V12.38Z" fill="black"/>
<path d="M42.896 27.6889C43.596 30.0109 46.114 30.2289 47.011 29.7829L47.016 29.7809C47.239 29.6709 52.662 26.9709 54.956 27.6169C56.399 28.3389 58.638 29.7829 61.454 29.9999C63.476 30.2879 64.9929 29.7099 66.4369 28.9159C68.3369 27.8709 70.6259 25.3779 73.6579 18.8059C74.2759 17.8149 73.803 17.1459 73.37 16.9289C72.647 16.6399 72.0699 17.0729 71.4919 18.1569C67.3759 26.9669 64.788 27.3349 63.548 27.6169C61.96 27.9769 59.793 27.6889 55.966 25.5949C53.654 24.3299 48.186 27.0419 46.362 27.5449C45.868 27.6809 45.278 27.7179 45.134 26.8949C44.98 26.0089 45.275 25.7009 45.64 25.3049C45.97 24.9479 51.474 23.1709 55.27 21.7179C55.733 21.5409 55.682 20.9029 55.453 20.4639C55.225 20.0239 54.791 19.7379 54.32 19.8939L53.154 20.2789C50.539 21.1429 45.401 23.0349 44.774 23.2839C43.694 23.7119 42.252 25.5529 42.896 27.6889Z" fill="black" fill-opacity="0.5"/>
<path d="M59.9199 44.376C59.6079 43.959 45.0869 29.494 45.0869 29.494C45.0869 29.494 47.2119 28.317 47.8289 28.988C49.5569 30.871 59.8539 41.343 61.3679 42.718C61.7779 43.092 62.1549 43.238 62.8119 42.65C63.5359 42.002 63.2629 41.767 63.1049 41.207C62.9619 40.701 56.4709 34.621 53.5109 31.588C53.1369 31.205 52.9329 30.433 53.5829 29.928C54.2479 29.41 54.8659 29.764 55.2429 30.144C55.4529 30.354 57.6679 32.485 58.0709 32.89C60.1709 35.002 64.3579 39.22 64.8409 39.767C65.6739 40.707 66.2069 42.354 64.5409 44.099C62.7309 45.997 60.5679 45.244 59.9199 44.376Z" fill="black"/>
<path d="M51.4158 15.846C44.9158 18.734 43.9058 19.023 43.9058 19.023L45.4938 20.828C45.4938 20.828 46.7218 20.251 52.5708 17.651C53.0768 17.426 53.1858 16.785 52.9318 16.279C52.6548 15.729 51.9788 15.595 51.4158 15.846Z" fill="black" fill-opacity="0.5"/>
</g>
<defs>
<clipPath id="clip0_131_104">
<rect width="75" height="76" fill="white"/>
</clipPath>
</defs>
</svg>
