<svg width="74" height="74" viewBox="0 0 74 74" fill="none" xmlns="http://www.w3.org/2000/svg">
<g clip-path="url(#clip0_131_114)">
<path d="M73.1336 71.9401C73.6825 71.9919 73.9996 72.287 74 73.0643C74.0004 73.8416 73.1336 74 73.1336 74H42.7611C42.3036 73.702 41.8592 73.3781 42.0422 72.7304C42.2382 72.0438 42.7872 71.9272 43.4276 71.9272C44.8654 71.9401 43.6594 71.9142 45.0972 71.9401C45.5285 71.9401 45.6331 71.8106 45.62 71.396C45.5939 70.2559 45.6069 69.1029 45.62 67.9629C45.6331 67.2374 46.0905 66.7192 46.6918 66.7451C47.2669 66.758 47.6851 67.2503 47.6982 67.9499C47.7113 68.7661 47.6982 69.5952 47.6982 70.4114C47.6982 71.9272 47.6982 71.9013 49.1883 71.9272C49.6588 71.9401 49.8026 71.8494 49.8026 71.3442C49.7764 67.2374 49.7895 63.1435 49.7895 59.0367C49.7895 58.2983 49.3713 57.8189 48.7439 57.8319C48.1034 57.8448 47.6982 58.3112 47.6982 59.0497C47.6982 60.5136 47.7113 61.9905 47.6982 63.4545C47.6851 64.154 47.2669 64.6463 46.6787 64.6593C46.0775 64.6852 45.6069 64.1799 45.6069 63.4415C45.5939 61.9257 45.5677 60.4229 45.6069 58.9072C45.6723 56.7048 47.7505 55.2797 49.8026 55.9923C51.0835 56.4327 51.8677 57.6117 51.8677 59.1145V59.1186C51.8677 63.1981 51.8677 67.2776 51.8547 71.3571C51.8547 71.7976 51.9462 71.9531 52.4167 71.9272C53.1356 71.8883 57.7878 71.9013 58.5067 71.9272C58.8466 71.9401 59.2256 71.9908 59.2256 71.4996C59.1864 70.9426 59.2256 70.3725 59.2256 69.8155C59.2256 64.6722 59.2125 59.4642 59.2256 54.321C59.2272 54.034 58.7681 53.3352 58.18 53.3352C57.6571 53.3352 57.1343 53.9182 57.1343 54.321V69.2767C57.1343 70.1122 56.5143 70.3727 56.0887 70.3714C55.6304 70.3699 55.043 70.1122 55.043 69.2702C54.9588 68.7621 55.043 54.8251 55.043 54.3069C55.043 52.0729 56.8425 51.1976 58.18 51.1976C59.487 51.1976 61.3169 52.4284 61.3169 54.3069C61.3169 59.9165 61.2786 65.7087 61.2655 71.3183C61.2655 71.7846 61.3439 71.966 61.8537 71.9272C62.5203 71.8753 63.1999 71.8883 63.8796 71.9272C64.2979 71.9531 64.4416 71.8494 64.4286 71.409C64.3894 70.3078 64.4155 69.2066 64.4155 68.1054C64.4155 67.2633 64.8338 66.7321 65.4742 66.7451C66.1147 66.758 66.5068 67.2762 66.5068 68.1313V70.3984C66.5068 71.9272 66.5068 71.9013 68.0491 71.9272C68.5197 71.9401 68.6112 71.7976 68.6112 71.3571C68.585 67.3022 68.5981 63.2342 68.5981 59.1792V59.177C68.5981 56.198 68.5981 53.2191 68.6112 50.2401C68.6112 49.7608 68.4935 49.3851 68.0622 49.1519C67.291 48.7503 66.5068 49.2944 66.5068 50.2272V63.3767C66.5068 64.1411 66.1016 64.6334 65.5004 64.6593C64.9383 64.6852 64.4286 64.1799 64.4286 63.5063C64.4155 59.0108 64.3894 54.5283 64.4416 50.0328C64.4678 47.8693 66.5983 46.4831 68.6242 47.1827C69.9313 47.6361 70.7024 48.8151 70.7024 50.3697V50.3745C70.7024 57.3687 70.7024 64.3629 70.6894 71.3571C70.6894 71.7976 70.7547 71.979 71.2383 71.9401H73.1336Z" fill="black" fill-opacity="0.5"/>
<path fill-rule="evenodd" clip-rule="evenodd" d="M69.059 41.242C69.059 42.3104 68.1372 43.1765 67 43.1765C65.8628 43.1765 64.941 42.3104 64.941 41.242C64.941 40.571 65.2724 39.3007 65.8917 38.1874C66.1926 37.6467 66.5041 37.2493 66.7731 37.0115C66.8775 36.9192 66.953 36.8698 67 36.844C67.0469 36.8698 67.1224 36.9192 67.2268 37.0115C67.4958 37.2493 67.8074 37.6468 68.1082 38.1874C68.7276 39.3007 69.059 40.571 69.059 41.242ZM71 41.242C71 43.3175 69.2091 45 67 45C64.7909 45 63 43.3175 63 41.242C63 39.1666 64.7908 35 67 35C69.2091 35 71 39.1666 71 41.242Z" fill="black" fill-opacity="0.5"/>
<path fill-rule="evenodd" clip-rule="evenodd" d="M60.059 46.6178C60.059 47.1931 59.4082 48.1054 58 48.1054C56.5918 48.1054 55.941 47.1931 55.941 46.6178C55.941 46.1256 56.2331 45.0584 56.8335 44.0873C57.119 43.6253 57.4138 43.287 57.6693 43.0837C57.8673 42.9262 57.9757 42.8992 58 42.8951C58.0242 42.8992 58.1327 42.9262 58.3306 43.0837C58.5862 43.287 58.881 43.6253 59.1665 44.0873C59.7669 45.0585 60.059 46.1256 60.059 46.6178ZM62 46.6178C62 48.4858 60.2091 50 58 50C55.7909 50 54 48.4858 54 46.6178C54 44.7499 55.7908 41 58 41C60.2091 41 62 44.7499 62 46.6178Z" fill="black" fill-opacity="0.5"/>
<path fill-rule="evenodd" clip-rule="evenodd" d="M51.059 50.6178C51.059 51.1931 50.4082 52.1054 49 52.1054C47.5918 52.1054 46.941 51.1931 46.941 50.6178C46.941 50.1256 47.2331 49.0584 47.8335 48.0873C48.119 47.6253 48.4138 47.287 48.6693 47.0837C48.8673 46.9262 48.9757 46.8992 49 46.8951C49.0242 46.8992 49.1327 46.9262 49.3306 47.0837C49.5862 47.287 49.881 47.6253 50.1665 48.0873C50.7669 49.0585 51.059 50.1256 51.059 50.6178ZM53 50.6178C53 52.4858 51.2091 54 49 54C46.7909 54 45 52.4858 45 50.6178C45 48.7499 46.7908 45 49 45C51.2091 45 53 48.7499 53 50.6178Z" fill="black" fill-opacity="0.5"/>
<path d="M48.3365 6.07609C47.3384 5.03986 45.9601 4.42754 44.3916 4.42754H36.5019V4.33333C36.5019 3.1558 36.0266 2.02536 35.2186 1.27174C34.4106 0.471014 33.3175 0 32.1293 0H17.8707C16.635 0 15.5418 0.471014 14.7338 1.27174C13.9259 2.07246 13.4506 3.1558 13.4506 4.33333V4.42754H5.60836C4.03992 4.42754 2.6616 5.03986 1.6635 6.07609C0.665399 7.06522 0 8.47826 0 9.98551V33.442C0 34.9964 0.617871 36.3623 1.6635 37.3514C2.6616 38.3406 4.08745 39 5.60836 39H44.3916C45.9601 39 47.3384 38.3877 48.3365 37.3514C49.3346 36.3623 50 34.9493 50 33.442V9.98551C50 8.43116 49.3821 7.06522 48.3365 6.07609ZM47.5285 33.442H47.481C47.481 34.2899 47.1483 35.0435 46.5779 35.6087C46.0076 36.1739 45.2472 36.5036 44.3916 36.5036H5.60836C4.75285 36.5036 3.9924 36.1739 3.42205 35.6087C2.85171 35.0435 2.51901 34.2899 2.51901 33.442V9.98551C2.51901 9.13768 2.85171 8.38406 3.42205 7.81884C3.9924 7.25362 4.75285 6.92391 5.60836 6.92391H14.7814C15.4943 6.92391 16.0646 6.3587 16.0646 5.65217V4.28623C16.0646 3.76812 16.2548 3.2971 16.5875 2.96739C16.9202 2.63768 17.3954 2.44928 17.9183 2.44928H32.1293C32.6521 2.44928 33.1274 2.63768 33.4601 2.96739C33.7928 3.2971 33.9829 3.76812 33.9829 4.28623V5.65217C33.9829 6.3587 34.5532 6.92391 35.2662 6.92391H44.4392C45.2947 6.92391 46.0551 7.25362 46.6255 7.81884C47.1958 8.38406 47.5285 9.13768 47.5285 9.98551V33.442Z" fill="black"/>
<path d="M25 10C21.6829 10 18.6585 11.3089 16.5122 13.3659C14.3171 15.4695 13 18.3211 13 21.5C13 24.6789 14.3659 27.5772 16.5122 29.6341C18.7073 31.7378 21.6829 33 25 33C28.3171 33 31.3415 31.6911 33.4878 29.6341C35.6829 27.5305 37 24.6789 37 21.5C37 18.3211 35.6341 15.4228 33.4878 13.3659C31.3415 11.3089 28.3171 10 25 10ZM31.6341 27.9045C29.9268 29.4939 27.5854 30.5224 25 30.5224C22.4146 30.5224 20.0732 29.4939 18.3659 27.9045C16.6585 26.2683 15.6341 24.0244 15.6341 21.5467C15.6341 19.0691 16.7073 16.8252 18.3659 15.189C20.0732 13.5528 22.4146 12.5711 25 12.5711C27.5854 12.5711 29.9268 13.5996 31.6341 15.189C33.3415 16.8252 34.3659 19.0691 34.3659 21.5467C34.4146 24.0244 33.3415 26.2683 31.6341 27.9045Z" fill="black"/>
<path d="M41.5 15C42.8807 15 44 13.8807 44 12.5C44 11.1193 42.8807 10 41.5 10C40.1193 10 39 11.1193 39 12.5C39 13.8807 40.1193 15 41.5 15Z" fill="black"/>
</g>
<defs>
<clipPath id="clip0_131_114">
<rect width="74" height="74" fill="white"/>
</clipPath>
</defs>
</svg>
