<svg width="69" height="69" viewBox="0 0 69 69" fill="none" xmlns="http://www.w3.org/2000/svg">
<g clip-path="url(#clip0_131_122)">
<path d="M18.3367 39.0288C18.5516 38.5979 18.9041 38.4747 19.3597 38.4923C19.695 38.5099 20.142 38.6506 20.3397 38.4308C20.503 38.2461 20.3999 37.7888 20.3999 37.4546C20.3999 32.9256 20.3999 28.3965 20.3999 23.8675C20.3999 22.8122 20.907 22.0119 21.7667 21.7041C23.1335 21.2204 24.5089 22.2142 24.5175 23.7356C24.5347 26.2244 24.5261 28.7219 24.5175 31.2107C24.5175 31.7208 24.2424 32.0549 23.847 32.0637C23.4344 32.0725 23.1507 31.7208 23.1507 31.1843C23.1507 28.7043 23.1507 26.2331 23.1507 23.7532C23.1507 23.12 22.6177 22.7594 22.1191 23.0496C21.8441 23.2079 21.7753 23.4718 21.7753 23.7971C21.7839 27.737 21.7839 31.6856 21.7839 35.6254C21.7839 36.4609 21.7925 37.2963 21.7753 38.1318C21.7667 38.3956 21.8097 38.5099 22.1105 38.5099C23.1507 38.5011 23.1507 38.5187 23.1507 37.4546C23.1507 36.4257 23.1507 35.4056 23.1507 34.3766C23.1507 34.0249 23.2882 33.761 23.6321 33.6291C23.9158 33.5148 24.1393 33.6291 24.3284 33.8226C24.5089 34.0073 24.5261 34.2623 24.5261 34.5173C24.5175 35.7309 24.5347 36.9533 24.5175 38.1669C24.5175 38.4308 24.5605 38.5275 24.8442 38.5099C25.3342 38.4835 25.8156 38.4923 26.3056 38.5099C26.5205 38.5187 26.6065 38.466 26.5979 38.2197C26.5807 37.8679 26.5893 37.5162 26.5893 37.1644C26.5893 32.7233 26.5893 28.2822 26.5893 23.8411C26.5893 22.821 27.1051 22.0207 27.9389 21.7129C29.2628 21.2292 30.6296 22.1614 30.707 23.6301C30.7413 24.3336 30.7241 25.0371 30.7155 25.7407C30.7069 26.2068 30.3975 26.5409 30.0192 26.5322C29.6324 26.5234 29.3487 26.198 29.3401 25.7231C29.3315 25.0635 29.3401 24.4039 29.3401 23.7444C29.3401 23.2783 29.065 22.9617 28.661 22.9529C28.2656 22.9441 27.9647 23.2607 27.9647 23.718C27.9647 28.5372 27.9647 33.3653 27.9561 38.1845C27.9561 38.4308 28.0163 38.5011 28.2656 38.5011C29.3401 38.5099 29.3401 38.5187 29.3401 37.437C29.3401 35.5023 29.3401 33.5676 29.3401 31.6328C29.3401 31.2547 29.4519 30.9469 29.8387 30.8062C30.1224 30.7006 30.3459 30.815 30.5264 31.0084C30.7069 31.2019 30.7155 31.4481 30.7155 31.7032C30.7155 33.8138 30.7241 35.9244 30.6984 38.035C30.6898 38.4396 30.8101 38.5275 31.1712 38.4923C31.5838 38.4572 32.005 38.4572 32.4176 38.4923C32.7357 38.5187 32.7787 38.3956 32.7787 38.0966C32.7701 33.3477 32.7701 28.5988 32.7701 23.8499C32.7701 22.7946 33.2773 21.9943 34.1369 21.6865C35.4694 21.2116 36.8706 22.1526 36.8878 23.6213C36.9222 26.6729 36.905 29.7157 36.8964 32.7673C36.8964 33.2246 36.5611 33.5675 36.1915 33.55C35.796 33.5324 35.5295 33.1982 35.5295 32.6793C35.5295 29.7069 35.5295 26.7256 35.5295 23.7532C35.5295 23.12 35.0137 22.7506 34.5066 23.0232C34.2229 23.1815 34.1455 23.4366 34.1455 23.762C34.1541 25.7846 34.1541 27.8073 34.1541 29.83C34.1541 32.5826 34.1627 35.344 34.1455 38.0966C34.1455 38.3956 34.2057 38.4923 34.5152 38.4835C35.5295 38.466 35.5295 38.4835 35.5295 37.4458C35.5295 36.9358 35.5295 36.4169 35.5295 35.9068C35.5295 35.3264 35.7874 34.9746 36.2087 34.9658C36.6299 34.957 36.905 35.3176 36.905 35.8892C36.905 36.6368 36.9222 37.3843 36.8964 38.1318C36.8878 38.4308 36.9823 38.5011 37.2574 38.4835C37.7044 38.4572 38.1514 38.4484 38.5899 38.4835C38.9251 38.5099 38.9767 38.3868 38.9767 38.0702C38.9681 34.2623 38.9429 30.3305 38.9429 26.5226C38.9429 25.2474 40.1464 24.4119 41.006 24.4119C41.8857 24.4119 43.0692 25.0061 43.0692 26.5226C43.0692 26.8743 43.1245 36.335 43.0692 36.6799C43.0692 37.2515 42.6829 37.4265 42.3814 37.4274C42.1015 37.4283 41.6937 37.2515 41.6937 36.6844C41.6937 36.2402 41.6937 26.8304 41.6937 26.5322C41.6937 26.2587 41.3499 25.863 41.006 25.863C40.6192 25.863 40.3172 26.3373 40.3183 26.5322C40.3269 30.0235 40.3183 33.5588 40.3183 37.0501C40.3183 37.4282 40.3441 37.8152 40.3183 38.1933C40.3183 38.5267 40.5676 38.4923 40.7911 38.4835C41.2639 38.466 44.3237 38.4572 44.7965 38.4835C45.1059 38.5011 45.1661 38.3956 45.1661 38.0966C45.1575 35.3264 45.1575 32.5562 45.1575 29.786C45.1575 28.7659 45.6733 27.9656 46.5157 27.6666C47.8654 27.1829 49.2322 28.1503 49.2752 29.6453C49.301 30.6742 49.2838 31.6944 49.2752 32.7233C49.2752 33.2246 48.9657 33.5675 48.5703 33.55C48.1834 33.5412 47.9084 33.207 47.8998 32.7321C47.8912 31.7384 47.8998 30.7358 47.8998 29.7421C47.8998 29.2408 47.6333 28.9242 47.2121 28.9154C46.7994 28.9066 46.5243 29.232 46.5243 29.7333C46.5243 32.521 46.5329 35.3 46.5157 38.0878C46.5157 38.4308 46.6103 38.4923 46.9198 38.4835C47.8998 38.466 47.8998 38.4835 47.8998 37.4546C47.8998 36.9006 47.8912 36.3377 47.8998 35.7837C47.9084 35.3088 48.1834 34.9746 48.5617 34.9658C48.9571 34.9483 49.258 35.3 49.2666 35.7925C49.2752 36.5664 49.2838 37.3491 49.2666 38.123C49.258 38.4044 49.3268 38.4923 49.6105 38.4923C50.5561 38.4747 50.6112 37.7439 51.5568 37.7351C51.978 37.7351 51.5597 37.9435 51.6886 38.4096C51.809 38.8493 49.9113 39.6884 49.6105 39.8906C38.2632 39.8906 30.1912 39.8906 18.8439 39.8906C18.5516 39.8379 18.3797 39.662 18.3281 39.363C18.3367 39.2662 18.3367 39.1431 18.3367 39.0288Z" fill="black" fill-opacity="0.5"/>
<path d="M29.6385 28.0314C29.9096 28.0246 30.1875 28.3007 30.1875 28.5701C30.1875 28.826 29.9232 29.0954 29.6724 29.1089C29.4013 29.1223 29.1167 28.8597 29.1099 28.5836C29.0963 28.3142 29.3606 28.0381 29.6385 28.0314Z" fill="black" fill-opacity="0.5"/>
<path fill-rule="evenodd" clip-rule="evenodd" d="M20.6677 18.0534C20.6677 18.7677 21.3097 19.3468 22.1017 19.3468C22.8936 19.3468 23.5357 18.7677 23.5357 18.0534C23.5357 17.6109 23.3096 16.7825 22.8897 16.058C22.6856 15.7057 22.4726 15.4443 22.2864 15.2862C22.1952 15.2089 22.1338 15.175 22.1017 15.1608C22.0695 15.175 22.008 15.2089 21.9168 15.2862C21.7305 15.4443 21.5177 15.7058 21.3135 16.058C20.8937 16.7825 20.6677 17.6109 20.6677 18.0534ZM19.4062 18.0534C19.4062 19.396 20.6131 20.4844 22.1017 20.4844C23.5902 20.4844 24.7969 19.396 24.7969 18.0534C24.7969 16.7109 23.5903 14.0156 22.1017 14.0156C20.6131 14.0156 19.4062 16.7109 19.4062 18.0534Z" fill="black" fill-opacity="0.5"/>
<path fill-rule="evenodd" clip-rule="evenodd" d="M27.1363 18.0534C27.1363 18.7677 27.7783 19.3468 28.5703 19.3468C29.3623 19.3468 30.0043 18.7677 30.0043 18.0534C30.0043 17.6109 29.7782 16.7825 29.3584 16.058C29.1542 15.7057 28.9414 15.4443 28.7551 15.2862C28.6639 15.2089 28.6025 15.175 28.5703 15.1608C28.5382 15.175 28.4767 15.2089 28.3855 15.2862C28.1993 15.4443 27.9864 15.7058 27.7823 16.058C27.3624 16.7825 27.1363 17.6109 27.1363 18.0534ZM25.875 18.0534C25.875 19.396 27.0817 20.4844 28.5703 20.4844C30.0589 20.4844 31.2656 19.396 31.2656 18.0534C31.2656 16.7109 30.0589 14.0156 28.5703 14.0156C27.0818 14.0156 25.875 16.7109 25.875 18.0534Z" fill="black" fill-opacity="0.5"/>
<path fill-rule="evenodd" clip-rule="evenodd" d="M33.6051 18.0534C33.6051 18.7677 34.2472 19.3468 35.0392 19.3468C35.8311 19.3468 36.4731 18.7677 36.4731 18.0534C36.4731 17.6109 36.247 16.7825 35.8271 16.058C35.623 15.7057 35.4101 15.4443 35.2239 15.2862C35.1327 15.2089 35.0713 15.175 35.0392 15.1608C35.007 15.175 34.9456 15.2089 34.8544 15.2862C34.6681 15.4443 34.4552 15.7058 34.251 16.058C33.8312 16.7825 33.6051 17.6109 33.6051 18.0534ZM32.3438 18.0534C32.3438 19.396 33.5506 20.4844 35.0392 20.4844C36.5277 20.4844 37.7345 19.396 37.7345 18.0534C37.7345 16.7109 36.5278 14.0156 35.0392 14.0156C33.5506 14.0156 32.3438 16.7109 32.3438 18.0534Z" fill="black" fill-opacity="0.5"/>
<path fill-rule="evenodd" clip-rule="evenodd" d="M40.0738 21.2878C40.0738 21.7344 40.5397 22.4055 41.5078 22.4055C42.4759 22.4055 42.9418 21.7344 42.9418 21.2878C42.9418 20.9227 42.7412 20.1471 42.3337 19.4439C42.1395 19.1087 41.9376 18.8607 41.7601 18.7101C41.6743 18.6373 41.6081 18.599 41.5648 18.5802C41.5439 18.5711 41.5294 18.567 41.521 18.5651C41.5129 18.5633 41.5078 18.5633 41.5078 18.5633C41.5078 18.5633 41.5028 18.5633 41.4947 18.5651C41.4863 18.567 41.4718 18.5711 41.4509 18.5802C41.4075 18.599 41.3414 18.6373 41.2556 18.7101C41.078 18.8607 40.8762 19.1087 40.6819 19.4439C40.2744 20.1471 40.0738 20.9227 40.0738 21.2878ZM38.8125 21.2878C38.8125 22.6304 40.0192 23.7188 41.5078 23.7188C42.9964 23.7188 44.2031 22.6304 44.2031 21.2878C44.2031 19.9453 42.9964 17.25 41.5078 17.25C40.0193 17.25 38.8125 19.9453 38.8125 21.2878Z" fill="black" fill-opacity="0.5"/>
<path fill-rule="evenodd" clip-rule="evenodd" d="M45.4644 23.8492C45.4644 24.2214 45.9304 24.7806 46.8984 24.7806C47.8665 24.7806 48.3324 24.2214 48.3324 23.8492C48.3324 23.545 48.1319 22.8986 47.7244 22.3126C47.5301 22.0333 47.3282 21.8266 47.1507 21.7011C47.0649 21.6404 46.9987 21.6086 46.9554 21.5929C46.9345 21.5853 46.92 21.5819 46.9116 21.5803C46.9035 21.5788 46.8985 21.5788 46.8985 21.5788C46.8985 21.5788 46.8934 21.5788 46.8853 21.5803C46.8769 21.5819 46.8624 21.5853 46.8415 21.5929C46.7982 21.6086 46.732 21.6404 46.6462 21.7011C46.4687 21.8266 46.2668 22.0333 46.0725 22.3126C45.665 22.8986 45.4644 23.545 45.4644 23.8492ZM44.2031 23.8492C44.2031 24.968 45.4099 25.875 46.8984 25.875C48.387 25.875 49.5938 24.968 49.5938 23.8492C49.5938 22.7304 48.387 20.4844 46.8985 20.4844C45.4099 20.4844 44.2031 22.7304 44.2031 23.8492Z" fill="black" fill-opacity="0.5"/>
<path d="M68.9861 26.3782C68.979 26.2989 68.9632 26.2206 68.9389 26.1447C68.9232 26.0769 68.9012 26.0108 68.8734 25.9469C68.8412 25.8845 68.8027 25.8255 68.7585 25.7709C68.7141 25.706 68.6628 25.6463 68.6055 25.5926C68.5871 25.5765 68.5791 25.5546 68.5596 25.5385L57.4995 16.9487V8.04598C57.4995 6.14054 55.9547 4.59575 54.0493 4.59575H41.5861L36.5958 0.721112C35.3631 -0.240371 33.6344 -0.240371 32.4016 0.721112L27.4103 4.59575H14.9471C13.0417 4.59575 11.4969 6.1404 11.4969 8.04598V16.9488L0.440302 25.5387C0.42076 25.5548 0.412673 25.5767 0.394344 25.5927C0.337066 25.6463 0.285718 25.7062 0.241377 25.771C0.197172 25.8256 0.158627 25.8845 0.126417 25.947C0.0985187 26.0108 0.0766855 26.0771 0.0609172 26.1449C0.0369277 26.2197 0.0211593 26.2968 0.0137468 26.3749C0.0137468 26.3991 0 26.4198 0 26.4439V65.5498C0.00161727 66.2813 0.238278 66.9929 0.675075 67.5796C0.681949 67.59 0.683162 67.6027 0.691113 67.6118C0.6992 67.621 0.71645 67.6314 0.727906 67.644C1.37401 68.4942 2.37887 68.9954 3.44667 69H65.5498C66.6218 68.9968 67.6308 68.4931 68.2778 67.6384C68.2869 67.6269 68.3008 67.6234 68.3088 67.612C68.3168 67.6005 68.3179 67.5901 68.3249 67.5797C68.7617 66.9929 68.9984 66.2813 69 65.5499V26.4472C68.9999 26.4231 68.9873 26.4023 68.9861 26.3782ZM33.8081 2.53585C34.2097 2.21671 34.7784 2.21671 35.1801 2.53585L37.8332 4.59562H31.1629L33.8081 2.53585ZM3.73643 66.6999L33.8082 43.3406C34.2101 43.022 34.7784 43.022 35.1802 43.3406L65.2599 66.6999H3.73643ZM66.6998 64.9069L36.5958 41.5258C35.3628 40.5651 33.6346 40.5651 32.4016 41.5258L2.29652 64.9069V28.1987L21.1426 42.8335C21.6447 43.2229 22.3674 43.1315 22.7567 42.6293C23.1461 42.1271 23.0547 41.4045 22.5526 41.0151L3.40637 26.1481L11.497 19.8606V28.7472C11.497 29.3824 12.012 29.8973 12.647 29.8973C13.2822 29.8973 13.7971 29.3823 13.7971 28.7472V8.04585C13.7971 7.41065 14.3119 6.89581 14.9471 6.89581H54.049C54.6842 6.89581 55.199 7.41065 55.199 8.04585V28.7472C55.199 29.3824 55.7139 29.8973 56.349 29.8973C56.9842 29.8973 57.4991 29.3823 57.4991 28.7472V19.8606L65.5897 26.1481L46.4102 41.0417C46.0803 41.2917 45.9101 41.6998 45.9648 42.1102C46.0195 42.5205 46.2906 42.8699 46.6745 43.0247C47.0585 43.1796 47.4961 43.1162 47.8202 42.8587L66.6996 28.1987L66.6998 64.9069Z" fill="black"/>
</g>
<defs>
<clipPath id="clip0_131_122">
<rect width="69" height="69" fill="white"/>
</clipPath>
</defs>
</svg>
